<svg width="20" height="21" viewBox="0 0 20 21" fill="none" xmlns="http://www.w3.org/2000/svg">
<path d="M16.8612 10.4762H3.01156C2.54487 10.4762 2.31153 10.4762 2.17967 10.513C1.5506 10.6885 1.25588 11.4101 1.5822 11.9758C1.6506 12.0944 1.81722 12.2578 2.15047 12.5845L8.87744 19.1796C9.02354 19.3228 9.0966 19.3944 9.16901 19.444C9.50099 19.6713 9.93687 19.6776 10.2752 19.4598C10.349 19.4123 10.4241 19.3428 10.5742 19.2038L17.6969 12.6087C18.0518 12.2801 18.2292 12.1158 18.3015 11.9976C18.6467 11.4325 18.3573 10.6939 17.72 10.5139C17.5867 10.4762 17.3449 10.4762 16.8612 10.4762Z" fill="#2430AD" stroke="#2430AD" stroke-linecap="round"/>
<rect x="0.909058" width="18.1818" height="3.80952" rx="1.90476" fill="#2430AD"/>
<rect x="0.909058" y="4.7619" width="18.1818" height="3.80952" rx="1.90476" fill="#2430AD"/>
</svg>
