<svg width="116" height="10" viewBox="0 0 116 10" fill="none" xmlns="http://www.w3.org/2000/svg">
<path d="M3.35 0.0799997C3.89 0.0799997 4.34 0.203333 4.7 0.45C5.06667 0.69 5.25 0.996666 5.25 1.37C5.25 1.74333 5.04 1.93333 4.62 1.94C4.62 1.52 4.5 1.19667 4.26 0.97C4.02 0.736666 3.69 0.62 3.27 0.62C2.58333 0.62 2.06 0.896667 1.7 1.45C1.34 2.00333 1.16 2.73667 1.16 3.65C1.16 5.57667 1.90333 6.54 3.39 6.54C4.08333 6.54 4.68333 6.33667 5.19 5.93C5.27667 5.97667 5.32 6.05 5.32 6.15C5.32 6.35667 5.11667 6.57667 4.71 6.81C4.30333 7.03667 3.80667 7.15 3.22 7.15C2.32 7.15 1.62667 6.85667 1.14 6.27C0.66 5.67667 0.406667 4.85 0.38 3.79C0.36 2.72333 0.613333 1.84 1.14 1.14C1.67333 0.433333 2.41 0.0799997 3.35 0.0799997ZM8.13594 2.48C7.6826 2.48 7.3326 2.67667 7.08594 3.07C6.83927 3.46333 6.71594 3.96667 6.71594 4.58C6.71594 5.18667 6.83594 5.68333 7.07594 6.07C7.31594 6.45 7.6626 6.64 8.11594 6.64C8.56927 6.63333 8.91927 6.44 9.16594 6.06C9.4126 5.68 9.53594 5.19 9.53594 4.59C9.53594 3.98333 9.41594 3.48 9.17594 3.08C8.9426 2.67333 8.59594 2.47333 8.13594 2.48ZM8.19594 1.96C8.7026 1.96 9.15927 2.12 9.56594 2.44C9.77927 2.61333 9.94927 2.86667 10.0759 3.2C10.2093 3.53333 10.2759 3.93333 10.2759 4.4C10.2893 5.22667 10.0959 5.89333 9.69594 6.4C9.29594 6.9 8.75594 7.15 8.07594 7.15C7.39594 7.15 6.87927 6.93667 6.52594 6.51C6.1726 6.08333 5.98927 5.46667 5.97594 4.66C5.96927 3.85333 6.16594 3.20333 6.56594 2.71C6.9726 2.21 7.51594 1.96 8.19594 1.96ZM16.2741 7H14.4141V6.92C14.4141 6.76 14.4607 6.66 14.5541 6.62C14.6007 6.59333 14.6574 6.57667 14.7241 6.57L15.1641 6.55V3.96C15.1641 3.02667 14.7941 2.56 14.0541 2.56C13.7807 2.56 13.5341 2.61333 13.3141 2.72C13.0941 2.82667 12.8441 2.99667 12.5641 3.23V6.53L13.2741 6.59C13.3007 6.86333 13.2107 7 13.0041 7H11.1241V6.92C11.1241 6.70667 11.2307 6.59 11.4441 6.57L11.8741 6.55V2.61L11.3541 2.55C11.1941 2.53667 11.1141 2.4 11.1141 2.14L12.4041 1.97L12.5341 2.73H12.5641C13.1041 2.21667 13.6607 1.96 14.2341 1.96C14.6807 1.96 15.0607 2.11667 15.3741 2.43C15.6941 2.74333 15.8541 3.22667 15.8541 3.88V6.53L16.5541 6.59C16.5807 6.86333 16.4874 7 16.2741 7ZM21.8669 9.14H19.9769V9.06C19.9769 8.9 20.0235 8.8 20.1169 8.76C20.1702 8.74 20.3669 8.71667 20.7069 8.69V6.54C20.2469 6.94667 19.7369 7.15 19.1769 7.15C18.6169 7.15 18.1469 6.94333 17.7669 6.53C17.3935 6.11667 17.2002 5.50667 17.1869 4.7C17.1735 3.88667 17.3735 3.22667 17.7869 2.72C18.2002 2.21333 18.7835 1.96 19.5369 1.96C19.9502 1.96 20.3402 2.04333 20.7069 2.21V2.16L21.4069 2.11V8.67L22.1469 8.73C22.1735 9.00333 22.0802 9.14 21.8669 9.14ZM20.7069 2.97C20.3402 2.65667 19.9035 2.5 19.3969 2.5C18.8969 2.5 18.5269 2.69667 18.2869 3.09C18.0469 3.47667 17.9269 3.96333 17.9269 4.55C17.9269 5.13667 18.0469 5.61667 18.2869 5.99C18.5335 6.35667 18.9069 6.54 19.4069 6.54C19.6602 6.54 19.8802 6.49667 20.0669 6.41C20.2535 6.32333 20.4669 6.18667 20.7069 6V2.97ZM22.1913 2.4C22.1913 2.20667 22.2846 2.11 22.4713 2.11H23.6413V5.06C23.6413 5.55333 23.7446 5.92667 23.9513 6.18C24.1579 6.42667 24.4646 6.55 24.8713 6.55C25.2846 6.55 25.7013 6.36667 26.1213 6V2.58L25.3513 2.53C25.3246 2.25 25.4146 2.11 25.6213 2.11H26.8113V6.43L27.3013 6.48C27.4546 6.49333 27.5313 6.63667 27.5313 6.91L26.3213 7.01L26.1913 6.48C25.7446 6.92667 25.2346 7.15 24.6613 7.15C24.2013 7.15 23.8013 6.98667 23.4613 6.66C23.1213 6.33333 22.9513 5.82 22.9513 5.12V2.58L22.1913 2.53V2.4ZM30.1339 7H28.2339V6.92C28.2339 6.76 28.2806 6.66 28.3739 6.62C28.4206 6.59333 28.4772 6.57667 28.5439 6.57L28.9639 6.55V2.59L28.4439 2.55C28.2839 2.53 28.2039 2.38667 28.2039 2.12L29.6539 1.96V6.53L30.4139 6.59C30.4406 6.86333 30.3472 7 30.1339 7ZM29.5839 1.05C29.4906 1.13667 29.3706 1.18 29.2239 1.18C29.0772 1.18 28.9572 1.13667 28.8639 1.05C28.7772 0.956666 28.7339 0.836666 28.7339 0.69C28.7339 0.543333 28.7772 0.423333 28.8639 0.329999C28.9572 0.236666 29.0772 0.189999 29.2239 0.189999C29.3706 0.189999 29.4906 0.236666 29.5839 0.329999C29.6772 0.423333 29.7239 0.543333 29.7239 0.69C29.7239 0.836666 29.6772 0.956666 29.5839 1.05ZM31.0741 3.36C31.0807 2.92667 31.2574 2.58333 31.6041 2.33C31.9507 2.07667 32.3274 1.95333 32.7341 1.96C33.1474 1.96667 33.4874 2.04 33.7541 2.18C34.0207 2.31333 34.1507 2.51333 34.1441 2.78C34.1374 2.96 34.0741 3.09 33.9541 3.17C33.8341 3.25 33.7041 3.28333 33.5641 3.27C33.5707 3.03667 33.4974 2.84667 33.3441 2.7C33.1974 2.55333 32.9807 2.47667 32.6941 2.47C32.4074 2.46333 32.1674 2.53 31.9741 2.67C31.7874 2.80333 31.6907 2.97667 31.6841 3.19C31.6774 3.40333 31.7707 3.57667 31.9641 3.71C32.1641 3.83667 32.4441 3.97 32.8041 4.11C33.1641 4.25 33.4074 4.35333 33.5341 4.42C33.6674 4.48 33.8107 4.56333 33.9641 4.67C34.2507 4.87 34.3874 5.17333 34.3741 5.58C34.3674 5.98667 34.1907 6.35333 33.8441 6.68C33.4974 7 33.0341 7.15667 32.4541 7.15C32.0407 7.13667 31.6774 7.05 31.3641 6.89C31.0507 6.72333 30.8941 6.49667 30.8941 6.21C30.9007 6.05667 30.9507 5.93667 31.0441 5.85C31.1441 5.75667 31.2641 5.71333 31.4041 5.72C31.4574 5.99333 31.5907 6.21333 31.8041 6.38C32.0241 6.54667 32.2941 6.63333 32.6141 6.64C32.9341 6.64 33.2007 6.56667 33.4141 6.42C33.6274 6.26667 33.7374 6.06667 33.7441 5.82C33.7507 5.57333 33.6741 5.38667 33.5141 5.26C33.3607 5.13333 33.1374 5.01667 32.8441 4.91C32.5507 4.79667 32.3441 4.71667 32.2241 4.67C32.1107 4.62333 31.9674 4.55333 31.7941 4.46C31.6274 4.36667 31.4974 4.27333 31.4041 4.18C31.1841 3.94667 31.0741 3.67333 31.0741 3.36ZM36.2394 2.57V5.51C36.2394 5.88333 36.2794 6.15333 36.3594 6.32C36.446 6.48667 36.606 6.57 36.8394 6.57C37.0794 6.57 37.2794 6.54333 37.4394 6.49C37.5994 6.43667 37.796 6.31667 38.0294 6.13C38.1494 6.16333 38.2094 6.26333 38.2094 6.43C38.2094 6.59667 38.046 6.76 37.7194 6.92C37.3994 7.08 37.0894 7.16 36.7894 7.16C36.3227 7.16 35.9994 7.02667 35.8194 6.76C35.6394 6.49333 35.5494 6.10667 35.5494 5.6V2.57H34.8194C34.7994 2.26333 34.896 2.11 35.1094 2.11H35.5494V0.92L36.2394 0.75V2.11H38.1094C38.1294 2.33 38.0794 2.48333 37.9594 2.57H36.2394ZM42.6496 4.37H39.5096C39.5029 4.43667 39.4996 4.54 39.4996 4.68C39.4996 5.24667 39.6196 5.70667 39.8596 6.06C40.0996 6.40667 40.4729 6.58 40.9796 6.58C41.4863 6.58 41.9696 6.4 42.4296 6.04C42.5096 6.10667 42.5496 6.19 42.5496 6.29C42.5496 6.47667 42.3663 6.66667 41.9996 6.86C41.6396 7.05333 41.2329 7.15 40.7796 7.15C40.1596 7.15 39.6629 6.94667 39.2896 6.54C38.9229 6.13333 38.7396 5.51333 38.7396 4.68C38.7396 3.84667 38.9596 3.18667 39.3996 2.7C39.8396 2.20667 40.3596 1.96 40.9596 1.96C41.5596 1.96 41.9929 2.15 42.2596 2.53C42.5263 2.91 42.6563 3.36333 42.6496 3.89V4.37ZM41.9196 3.92C41.9196 3.47333 41.8329 3.12 41.6596 2.86C41.4863 2.59333 41.2329 2.46 40.8996 2.46C40.5729 2.46 40.2929 2.59 40.0596 2.85C39.8263 3.11 39.6629 3.46667 39.5696 3.92H41.9196ZM48.1848 2.48C47.7314 2.48 47.3814 2.67667 47.1348 3.07C46.8881 3.46333 46.7648 3.96667 46.7648 4.58C46.7648 5.18667 46.8848 5.68333 47.1248 6.07C47.3648 6.45 47.7114 6.64 48.1648 6.64C48.6181 6.63333 48.9681 6.44 49.2148 6.06C49.4614 5.68 49.5848 5.19 49.5848 4.59C49.5848 3.98333 49.4648 3.48 49.2248 3.08C48.9914 2.67333 48.6448 2.47333 48.1848 2.48ZM48.2448 1.96C48.7514 1.96 49.2081 2.12 49.6148 2.44C49.8281 2.61333 49.9981 2.86667 50.1248 3.2C50.2581 3.53333 50.3248 3.93333 50.3248 4.4C50.3381 5.22667 50.1448 5.89333 49.7448 6.4C49.3448 6.9 48.8048 7.15 48.1248 7.15C47.4448 7.15 46.9281 6.93667 46.5748 6.51C46.2214 6.08333 46.0381 5.46667 46.0248 4.66C46.0181 3.85333 46.2148 3.20333 46.6148 2.71C47.0214 2.21 47.5648 1.96 48.2448 1.96ZM56.1387 1.96C56.5653 1.96 56.902 2.04667 57.1487 2.22C57.402 2.39333 57.5287 2.62333 57.5287 2.91C57.5287 3.27667 57.342 3.45333 56.9687 3.44C56.962 3.19333 56.8753 2.97667 56.7087 2.79C56.5487 2.59667 56.3053 2.5 55.9787 2.5C55.5053 2.5 55.142 2.69667 54.8887 3.09C54.642 3.48333 54.5187 3.98 54.5187 4.58C54.5187 5.10667 54.622 5.56 54.8287 5.94C55.0687 6.36 55.482 6.57 56.0687 6.57C56.5487 6.57 57.0053 6.39333 57.4387 6.04C57.5253 6.1 57.5687 6.18 57.5687 6.28C57.5687 6.48 57.3787 6.67667 56.9987 6.87C56.6187 7.05667 56.212 7.15 55.7787 7.15C55.1453 7.15 54.6553 6.93 54.3087 6.49C53.9687 6.05 53.792 5.45 53.7787 4.69C53.7653 3.92333 53.9687 3.27667 54.3887 2.75C54.8087 2.22333 55.392 1.96 56.1387 1.96ZM60.4602 2.48C60.0068 2.48 59.6568 2.67667 59.4102 3.07C59.1635 3.46333 59.0402 3.96667 59.0402 4.58C59.0402 5.18667 59.1602 5.68333 59.4002 6.07C59.6402 6.45 59.9868 6.64 60.4402 6.64C60.8935 6.63333 61.2435 6.44 61.4902 6.06C61.7368 5.68 61.8602 5.19 61.8602 4.59C61.8602 3.98333 61.7402 3.48 61.5002 3.08C61.2668 2.67333 60.9202 2.47333 60.4602 2.48ZM60.5202 1.96C61.0268 1.96 61.4835 2.12 61.8902 2.44C62.1035 2.61333 62.2735 2.86667 62.4002 3.2C62.5335 3.53333 62.6002 3.93333 62.6002 4.4C62.6135 5.22667 62.4202 5.89333 62.0202 6.4C61.6202 6.9 61.0802 7.15 60.4002 7.15C59.7202 7.15 59.2035 6.93667 58.8502 6.51C58.4968 6.08333 58.3135 5.46667 58.3002 4.66C58.2935 3.85333 58.4902 3.20333 58.8902 2.71C59.2968 2.21 59.8402 1.96 60.5202 1.96ZM68.5983 7H66.7383V6.92C66.7383 6.76 66.7849 6.66 66.8783 6.62C66.9249 6.59333 66.9816 6.57667 67.0483 6.57L67.4883 6.55V3.96C67.4883 3.02667 67.1183 2.56 66.3783 2.56C66.1049 2.56 65.8583 2.61333 65.6383 2.72C65.4183 2.82667 65.1683 2.99667 64.8883 3.23V6.53L65.5983 6.59C65.6249 6.86333 65.5349 7 65.3283 7H63.4483V6.92C63.4483 6.70667 63.5549 6.59 63.7683 6.57L64.1983 6.55V2.61L63.6783 2.55C63.5183 2.53667 63.4383 2.4 63.4383 2.14L64.7283 1.97L64.8583 2.73H64.8883C65.4283 2.21667 65.9849 1.96 66.5583 1.96C67.0049 1.96 67.3849 2.11667 67.6983 2.43C68.0183 2.74333 68.1783 3.22667 68.1783 3.88V6.53L68.8783 6.59C68.9049 6.86333 68.8116 7 68.5983 7ZM74.7911 7H72.8911V6.92C72.8911 6.70667 72.9978 6.59 73.2111 6.57L73.6211 6.55V4.04C73.6211 3.55333 73.5178 3.19 73.3111 2.95C73.1044 2.70333 72.8344 2.58 72.5011 2.58C72.1744 2.58 71.9044 2.63333 71.6911 2.74C71.4844 2.84667 71.2611 3.00667 71.0211 3.22V6.53L71.7811 6.59C71.8078 6.86333 71.7144 7 71.5011 7H69.6011V6.92C69.6011 6.76 69.6478 6.66 69.7411 6.62C69.7878 6.59333 69.8444 6.57667 69.9111 6.57L70.3311 6.55V0.69L69.8111 0.64C69.6511 0.619999 69.5711 0.476666 69.5711 0.21L71.0211 0.0199999V2.67C71.4811 2.19667 72.0044 1.96 72.5911 1.96C73.0578 1.96 73.4578 2.12333 73.7911 2.45C74.1244 2.77 74.2944 3.28 74.3011 3.98L74.3111 6.53L75.0611 6.59C75.0878 6.86333 74.9978 7 74.7911 7ZM79.6125 4.37H76.4725C76.4658 4.43667 76.4625 4.54 76.4625 4.68C76.4625 5.24667 76.5825 5.70667 76.8225 6.06C77.0625 6.40667 77.4358 6.58 77.9425 6.58C78.4492 6.58 78.9325 6.4 79.3925 6.04C79.4725 6.10667 79.5125 6.19 79.5125 6.29C79.5125 6.47667 79.3292 6.66667 78.9625 6.86C78.6025 7.05333 78.1958 7.15 77.7425 7.15C77.1225 7.15 76.6258 6.94667 76.2525 6.54C75.8858 6.13333 75.7025 5.51333 75.7025 4.68C75.7025 3.84667 75.9225 3.18667 76.3625 2.7C76.8025 2.20667 77.3225 1.96 77.9225 1.96C78.5225 1.96 78.9558 2.15 79.2225 2.53C79.4892 2.91 79.6192 3.36333 79.6125 3.89V4.37ZM78.8825 3.92C78.8825 3.47333 78.7958 3.12 78.6225 2.86C78.4492 2.59333 78.1958 2.46 77.8625 2.46C77.5358 2.46 77.2558 2.59 77.0225 2.85C76.7892 3.11 76.6258 3.46667 76.5325 3.92H78.8825ZM82.6719 1.96C83.0985 1.96 83.4352 2.04667 83.6819 2.22C83.9352 2.39333 84.0619 2.62333 84.0619 2.91C84.0619 3.27667 83.8752 3.45333 83.5019 3.44C83.4952 3.19333 83.4085 2.97667 83.2419 2.79C83.0819 2.59667 82.8385 2.5 82.5119 2.5C82.0385 2.5 81.6752 2.69667 81.4219 3.09C81.1752 3.48333 81.0519 3.98 81.0519 4.58C81.0519 5.10667 81.1552 5.56 81.3619 5.94C81.6019 6.36 82.0152 6.57 82.6019 6.57C83.0819 6.57 83.5385 6.39333 83.9719 6.04C84.0585 6.1 84.1019 6.18 84.1019 6.28C84.1019 6.48 83.9119 6.67667 83.5319 6.87C83.1519 7.05667 82.7452 7.15 82.3119 7.15C81.6785 7.15 81.1885 6.93 80.8419 6.49C80.5019 6.05 80.3252 5.45 80.3119 4.69C80.2985 3.92333 80.5019 3.27667 80.9219 2.75C81.3419 2.22333 81.9252 1.96 82.6719 1.96ZM86.8234 7H84.9234V6.92C84.9234 6.76 84.97 6.66 85.0634 6.62C85.11 6.59333 85.1667 6.57667 85.2334 6.57L85.6534 6.55V2.59L85.1334 2.55C84.9734 2.53 84.8934 2.38667 84.8934 2.12L86.3434 1.96V6.53L87.1034 6.59C87.13 6.86333 87.0367 7 86.8234 7ZM86.2734 1.05C86.18 1.13667 86.06 1.18 85.9134 1.18C85.7667 1.18 85.6467 1.13667 85.5534 1.05C85.4667 0.956666 85.4234 0.836666 85.4234 0.69C85.4234 0.543333 85.4667 0.423333 85.5534 0.329999C85.6467 0.236666 85.7667 0.189999 85.9134 0.189999C86.06 0.189999 86.18 0.236666 86.2734 0.329999C86.3667 0.423333 86.4134 0.543333 86.4134 0.69C86.4134 0.836666 86.3667 0.956666 86.2734 1.05ZM96.1335 7H94.2435V6.92C94.2435 6.76 94.2902 6.66 94.3835 6.62C94.4302 6.59333 94.4868 6.57667 94.5535 6.57L94.9635 6.55V4.05C94.9635 3.07667 94.5702 2.59 93.7835 2.59C93.5102 2.59 93.2702 2.65 93.0635 2.77C92.8568 2.88333 92.6302 3.05333 92.3835 3.28C92.4435 3.46667 92.4735 3.70333 92.4735 3.99V6.53L93.2235 6.59C93.2502 6.86333 93.1602 7 92.9535 7H91.0535V6.92C91.0535 6.76 91.1002 6.66 91.1935 6.62C91.2402 6.59333 91.2968 6.57667 91.3635 6.57L91.7735 6.55V4.05C91.7735 3.57 91.6668 3.20667 91.4535 2.96C91.2468 2.71333 90.9568 2.59 90.5835 2.59C90.3235 2.59 90.0935 2.64333 89.8935 2.75C89.6935 2.85667 89.4802 3.01333 89.2535 3.22V6.53L90.0135 6.59C90.0402 6.86333 89.9468 7 89.7335 7H87.8335V6.92C87.8335 6.76 87.8802 6.66 87.9735 6.62C88.0202 6.59333 88.0768 6.57667 88.1435 6.57L88.5635 6.55V2.58L88.1235 2.57C87.9102 2.57 87.8035 2.42667 87.8035 2.14L89.0935 1.97L89.2135 2.67H89.2435C89.6902 2.19667 90.1902 1.96 90.7435 1.96C91.0435 1.96 91.3302 2.03333 91.6035 2.18C91.8768 2.32667 92.0868 2.55667 92.2335 2.87C92.4668 2.59667 92.7135 2.37667 92.9735 2.21C93.2402 2.04333 93.5835 1.96 94.0035 1.96C94.4235 1.96 94.8035 2.12333 95.1435 2.45C95.4835 2.77667 95.6535 3.29 95.6535 3.99V6.53L96.4135 6.59C96.4402 6.86333 96.3468 7 96.1335 7ZM100.95 4.37H97.8104C97.8037 4.43667 97.8004 4.54 97.8004 4.68C97.8004 5.24667 97.9204 5.70667 98.1604 6.06C98.4004 6.40667 98.7737 6.58 99.2804 6.58C99.7871 6.58 100.27 6.4 100.73 6.04C100.81 6.10667 100.85 6.19 100.85 6.29C100.85 6.47667 100.667 6.66667 100.3 6.86C99.9404 7.05333 99.5337 7.15 99.0804 7.15C98.4604 7.15 97.9637 6.94667 97.5904 6.54C97.2237 6.13333 97.0404 5.51333 97.0404 4.68C97.0404 3.84667 97.2604 3.18667 97.7004 2.7C98.1404 2.20667 98.6604 1.96 99.2604 1.96C99.8604 1.96 100.294 2.15 100.56 2.53C100.827 2.91 100.957 3.36333 100.95 3.89V4.37ZM100.22 3.92C100.22 3.47333 100.134 3.12 99.9604 2.86C99.7871 2.59333 99.5337 2.46 99.2004 2.46C98.8737 2.46 98.5937 2.59 98.3604 2.85C98.1271 3.11 97.9637 3.46667 97.8704 3.92H100.22ZM106.87 7H105.01V6.92C105.01 6.76 105.056 6.66 105.15 6.62C105.196 6.59333 105.253 6.57667 105.32 6.57L105.76 6.55V3.96C105.76 3.02667 105.39 2.56 104.65 2.56C104.376 2.56 104.13 2.61333 103.91 2.72C103.69 2.82667 103.44 2.99667 103.16 3.23V6.53L103.87 6.59C103.896 6.86333 103.806 7 103.6 7H101.72V6.92C101.72 6.70667 101.826 6.59 102.04 6.57L102.47 6.55V2.61L101.95 2.55C101.79 2.53667 101.71 2.4 101.71 2.14L103 1.97L103.13 2.73H103.16C103.7 2.21667 104.256 1.96 104.83 1.96C105.276 1.96 105.656 2.11667 105.97 2.43C106.29 2.74333 106.45 3.22667 106.45 3.88V6.53L107.15 6.59C107.176 6.86333 107.083 7 106.87 7ZM109.023 2.57V5.51C109.023 5.88333 109.063 6.15333 109.143 6.32C109.229 6.48667 109.389 6.57 109.623 6.57C109.863 6.57 110.063 6.54333 110.223 6.49C110.383 6.43667 110.579 6.31667 110.813 6.13C110.933 6.16333 110.993 6.26333 110.993 6.43C110.993 6.59667 110.829 6.76 110.503 6.92C110.183 7.08 109.873 7.16 109.573 7.16C109.106 7.16 108.783 7.02667 108.603 6.76C108.423 6.49333 108.333 6.10667 108.333 5.6V2.57H107.603C107.583 2.26333 107.679 2.11 107.893 2.11H108.333V0.92L109.023 0.75V2.11H110.893C110.913 2.33 110.863 2.48333 110.743 2.57H109.023ZM113.683 2.48C113.229 2.48 112.879 2.67667 112.633 3.07C112.386 3.46333 112.263 3.96667 112.263 4.58C112.263 5.18667 112.383 5.68333 112.623 6.07C112.863 6.45 113.209 6.64 113.663 6.64C114.116 6.63333 114.466 6.44 114.713 6.06C114.959 5.68 115.083 5.19 115.083 4.59C115.083 3.98333 114.963 3.48 114.723 3.08C114.489 2.67333 114.143 2.47333 113.683 2.48ZM113.743 1.96C114.249 1.96 114.706 2.12 115.113 2.44C115.326 2.61333 115.496 2.86667 115.623 3.2C115.756 3.53333 115.823 3.93333 115.823 4.4C115.836 5.22667 115.643 5.89333 115.243 6.4C114.843 6.9 114.303 7.15 113.623 7.15C112.943 7.15 112.426 6.93667 112.073 6.51C111.719 6.08333 111.536 5.46667 111.523 4.66C111.516 3.85333 111.713 3.20333 112.113 2.71C112.519 2.21 113.063 1.96 113.743 1.96Z" fill="black"/>
</svg>
