<svg width="20" height="20" viewBox="0 0 20 20" fill="none" xmlns="http://www.w3.org/2000/svg">
<circle cx="10" cy="10" r="10" fill="#FFC745"/>
<path d="M8.55078 11.5H9.85513V13.7222H8.55078C8.92497 13.0585 8.9414 12.5807 8.55078 11.5Z" fill="#2430AD"/>
<path d="M11.1595 11.5H9.85513V13.7222H11.1595C10.7853 13.0585 10.7689 12.5807 11.1595 11.5Z" fill="#2430AD"/>
<rect x="6.81165" y="16.5" width="6.08696" height="0.833334" rx="0.416667" fill="#2430AD"/>
<rect x="7.39136" y="13.7222" width="4.92754" height="1.11111" rx="0.555555" fill="#2430AD"/>
<path d="M7.82614 14.5556H11.8841L12.3189 16.5H7.39136L7.82614 14.5556Z" fill="#2430AD"/>
<path fill-rule="evenodd" clip-rule="evenodd" d="M13.7683 4H9.85509H5.94202L5.94204 8.02778C5.94204 10.0988 7.69415 11.7778 9.85527 11.7778C12.0164 11.7778 13.7683 10.0258 13.7683 7.86473V4ZM10.7138 5.92211C10.468 5.26034 9.53199 5.26034 9.28625 5.92211L9.27219 5.95998C9.16985 6.23558 8.90688 6.41844 8.6129 6.41844H8.45111C7.79446 6.41844 7.54492 7.27612 8.09907 7.62841C8.36027 7.79446 8.46841 8.12454 8.36066 8.4147C8.1331 9.02752 8.80871 9.59422 9.36038 9.24351L9.5858 9.1002C9.83856 8.93951 10.1614 8.93951 10.4142 9.1002L10.6396 9.24351C11.1913 9.59422 11.8669 9.02752 11.6393 8.4147C11.5316 8.12454 11.6397 7.79446 11.9009 7.62841C12.4551 7.27612 12.2055 6.41844 11.5489 6.41844H11.3871C11.0931 6.41844 10.8302 6.23558 10.7278 5.95998L10.7138 5.92211Z" fill="#2430AD"/>
<path fill-rule="evenodd" clip-rule="evenodd" d="M4.03926 4C3.64941 4 3.33337 4.31603 3.33337 4.70588V7.25003C3.33337 8.7688 4.56458 10 6.08334 10C6.5896 10 7 9.5896 7 9.08334V4H4.03926ZM4.47618 5.11111C4.23072 5.11111 4.03174 5.31009 4.03174 5.55555V7.18653C4.03174 8.12671 4.79391 8.88889 5.7341 8.88889C6.0475 8.88889 6.30155 8.63483 6.30155 8.32143V5.11111H4.47618Z" fill="#2430AD"/>
<path fill-rule="evenodd" clip-rule="evenodd" d="M15.9607 4C16.3506 4 16.6666 4.31603 16.6666 4.70588V7.25003C16.6666 8.7688 15.4354 10 13.9167 10C13.4104 10 13 9.5896 13 9.08334V4H15.9607ZM15.5237 5.11111C15.7692 5.11111 15.9681 5.31009 15.9681 5.55555V7.18653C15.9681 8.12671 15.206 8.88889 14.2658 8.88889C13.9524 8.88889 13.6983 8.63483 13.6983 8.32143V5.11111H15.5237Z" fill="#2430AD"/>
</svg>
