<svg width="22" height="16" viewBox="0 0 22 16" fill="none" xmlns="http://www.w3.org/2000/svg">
<path fill-rule="evenodd" clip-rule="evenodd" d="M3 0C1.34315 0 0 1.34315 0 3V13C0 14.6569 1.34315 16 3 16H19C20.6569 16 22 14.6569 22 13V3C22 1.34315 20.6569 0 19 0H3ZM4.24239 1.77777C2.95373 1.77777 1.90906 2.82244 1.90906 4.1111V11.2222C1.90906 12.8791 3.2522 14.2222 4.90906 14.2222H17.0909C18.7477 14.2222 20.0909 12.8791 20.0909 11.2222V4.1111C20.0909 2.82244 19.0462 1.77777 17.7575 1.77777H4.24239Z" fill="#2430AD"/>
<path d="M8.95525 6.30584L2.23343 3.29347C1.87149 3.13127 1.80173 2.64744 2.10311 2.38959C2.26216 2.25351 2.4855 2.22151 2.67637 2.30746L8.94711 5.13113C10.2526 5.71898 11.7475 5.71898 13.053 5.13113L19.3237 2.30746C19.5146 2.22151 19.7379 2.25351 19.897 2.38959C20.1984 2.64744 20.1286 3.13127 19.7667 3.29347L13.0448 6.30584C11.744 6.88882 10.2561 6.88882 8.95525 6.30584Z" fill="#2430AD"/>
<path d="M9.0518 7.17576L1.82919 4.12004C1.45385 3.96124 1.38337 3.45959 1.70042 3.20351C1.85549 3.07826 2.067 3.04872 2.25045 3.12671L9.0439 6.01461C10.2938 6.54597 11.7062 6.54596 12.9561 6.01461L19.7495 3.12671C19.933 3.04872 20.1445 3.07826 20.2996 3.20351C20.6166 3.45959 20.5462 3.96124 20.1708 4.12004L12.9482 7.17576C11.7028 7.70265 10.2972 7.70265 9.0518 7.17576Z" fill="#2430AD"/>
</svg>
