<svg width="83" height="49" viewBox="0 0 83 49" fill="none" xmlns="http://www.w3.org/2000/svg">
<path d="M40.9366 19.5087C39.847 19.5087 38.9936 19.0821 38.3766 18.2287C37.7662 17.3688 37.4609 16.0462 37.4609 14.2608V6.72858C37.4609 5.12696 37.7727 3.90606 38.3963 3.06586C39.0265 2.22567 40.0242 1.80557 41.3895 1.80557C43.0896 1.80557 44.1694 2.439 44.6288 3.70585C44.9045 4.46728 45.0424 5.50768 45.0424 6.82704V8.0578H42.5809V6.24613C42.5809 5.45188 42.4955 4.89394 42.3249 4.5723C42.1608 4.25067 41.8457 4.08985 41.3797 4.08985C40.9202 4.08985 40.5953 4.28349 40.4049 4.67076C40.2145 5.05148 40.1194 5.73085 40.1194 6.70889V14.2214C40.1194 15.357 40.2047 16.1479 40.3754 16.5943C40.546 17.0406 40.8775 17.2638 41.3698 17.2638C41.8687 17.2638 42.2198 17.0242 42.4233 16.5451C42.6334 16.0659 42.7384 15.2585 42.7384 14.1229V11.7894H41.4092V9.86946H45.0424V19.3315H43.8609L43.4572 17.6281C43.3193 18.2123 43.0174 18.6718 42.5513 19.0066C42.0853 19.3413 41.547 19.5087 40.9366 19.5087Z" fill="#FFC745"/>
<path d="M50.2552 14.1229L49.0934 5.41906H49.054L47.9907 14.1229H50.2552ZM44.8202 19.3315L47.2916 2.00249H50.7771L53.406 19.3315H50.9445L50.5309 16.2398H47.7347L47.3605 19.3315H44.8202Z" fill="#FFC745"/>
<path d="M53.302 19.3315V2.00249H56.5807L59.0422 14.6645L61.356 2.00249H64.6545V19.3315H62.3013V12.8725L62.3997 6.9452L60.0662 19.2527H57.969L55.537 6.9452L55.6355 12.8725V19.3315H53.302Z" fill="#FFC745"/>
<path d="M65.348 19.3315V2.00249H71.1572V4.27692H67.9867V9.31809H70.9996V11.5433H67.9867V17.0571H71.2753V19.3315H65.348Z" fill="#FFC745"/>
<path d="M37.6775 38.5796V21.2506H43.4867V23.525H40.3163V28.5662H43.3292V30.7914H40.3163V36.3051H43.6049V38.5796H37.6775Z" fill="#FFC745"/>
<path d="M44.0566 33.7058V32.16H46.5575V33.9027C46.5575 34.8676 46.6395 35.547 46.8036 35.9408C46.9677 36.3281 47.2762 36.5217 47.7292 36.5217C48.1821 36.5217 48.4807 36.3609 48.6251 36.0393C48.7761 35.7177 48.8516 35.1925 48.8516 34.4639C48.8516 33.7353 48.7203 33.1019 48.4578 32.5636C48.1952 32.0188 47.7784 31.451 47.2073 30.8603L45.9273 29.5409C45.33 28.9173 44.864 28.2708 44.5292 27.6013C44.201 26.9317 44.0369 26.1572 44.0369 25.2776C44.0369 23.8466 44.3126 22.7833 44.864 22.0875C45.4153 21.3917 46.3638 21.0438 47.7095 21.0438C49.0551 21.0438 49.9642 21.4508 50.4368 22.2647C50.916 23.0721 51.1556 24.2536 51.1556 25.8093V26.8825H48.7236V25.6419C48.7236 24.8017 48.6514 24.2011 48.507 23.8401C48.3626 23.4725 48.0836 23.2887 47.6701 23.2887C47.2631 23.2887 46.9677 23.4265 46.7839 23.7022C46.6067 23.9779 46.5181 24.3914 46.5181 24.9428C46.5181 25.4942 46.61 25.934 46.7938 26.2622C46.9776 26.5904 47.3091 27.0105 47.7882 27.5225L49.2159 29.0683C49.9314 29.8429 50.4696 30.6273 50.8307 31.4215C51.1982 32.2158 51.382 33.0822 51.382 34.0209C51.382 35.6422 51.1096 36.8401 50.5648 37.6147C50.02 38.3892 49.0649 38.7765 47.6996 38.7765C46.3409 38.7765 45.3924 38.3465 44.8541 37.4867C44.3224 36.6202 44.0566 35.3599 44.0566 33.7058Z" fill="#FFC745"/>
<path d="M59.2258 33.8535C59.2258 35.5273 58.9271 36.7679 58.3298 37.5753C57.7324 38.3761 56.7938 38.7765 55.5138 38.7765C54.2338 38.7765 53.2755 38.3498 52.6388 37.4965C52.0086 36.6366 51.6936 35.4026 51.6936 33.7944V26.2425C51.6936 23.6628 52.3696 22.0514 53.7218 21.4081C54.2207 21.1718 54.8246 21.0536 55.5335 21.0536C57.9688 21.0536 59.1864 22.5896 59.1864 25.6616V28.0443H56.6363V25.829C56.6363 24.9363 56.5608 24.2996 56.4098 23.9188C56.2588 23.5316 55.9634 23.3379 55.5237 23.3379C55.0839 23.3379 54.7786 23.5414 54.608 23.9484C54.4373 24.3553 54.352 24.9789 54.352 25.8191V33.9126C54.352 34.8446 54.434 35.5109 54.5981 35.9113C54.7622 36.3117 55.0609 36.5119 55.4941 36.5119C55.9273 36.5119 56.226 36.3084 56.3901 35.9014C56.5542 35.4945 56.6363 34.8217 56.6363 33.883V31.4018H59.2258V33.8535Z" fill="#FFC745"/>
<path d="M62.4123 33.7649C62.4123 34.7823 62.4878 35.4912 62.6388 35.8916C62.7963 36.292 63.1147 36.4922 63.5938 36.4922C64.073 36.4922 64.3881 36.2887 64.5391 35.8818C64.69 35.4682 64.7655 34.7626 64.7655 33.7649V25.6911C64.7655 24.8706 64.6868 24.2733 64.5292 23.8991C64.3783 23.5184 64.0763 23.3281 63.6234 23.3281C63.177 23.3281 62.862 23.5184 62.6782 23.8991C62.5009 24.2733 62.4123 24.8673 62.4123 25.6813V33.7649ZM67.4141 33.7353C67.4141 35.4288 67.1122 36.6924 66.5083 37.526C65.9044 38.3597 64.9362 38.7765 63.6037 38.7765C62.2778 38.7765 61.303 38.3597 60.6794 37.526C60.0624 36.6858 59.7539 35.4223 59.7539 33.7353V25.8093C59.7539 22.6323 61.0503 21.0438 63.6431 21.0438C64.9821 21.0438 65.9438 21.4475 66.528 22.2549C67.1187 23.0622 67.4141 24.247 67.4141 25.8093V33.7353Z" fill="#FFC745"/>
<path d="M68.405 38.5796V21.2506H71.0437V36.3347H74.3815V38.5796H68.405Z" fill="#FFC745"/>
<path d="M79.8492 33.371L78.6874 24.6671H78.648L77.5847 33.371H79.8492ZM74.4142 38.5796L76.8856 21.2506H80.3711L83 38.5796H80.5385L80.1249 35.4879H77.3287L76.9545 38.5796H74.4142Z" fill="#FFC745"/>
<path d="M0.5 21.1288C0.5 20.8987 0.686508 20.7122 0.916575 20.7122H32.5893C32.8194 20.7122 33.0059 20.8987 33.0059 21.1288V36.9012C33.0059 37.1312 32.8194 37.3177 32.5893 37.3177H0.916575C0.686507 37.3177 0.5 37.1312 0.5 36.9012V21.1288Z" fill="#2430AD" stroke="#FFC745"/>
<path d="M16.2742 37.0914C8.23281 33.9224 3.35052 35.3236 1.91455 36.0572V20.6523C7.65842 18.5397 13.8809 19.772 16.2742 20.6523V37.0914Z" fill="#2430AD"/>
<path d="M17.2316 37.0913C25.273 33.9223 30.1553 35.3236 31.5912 36.0572V20.6523C25.8474 18.5397 19.6248 19.772 17.2316 20.6523V37.0913Z" fill="#2430AD"/>
<path d="M16.2742 37.0914C8.23281 33.9224 3.35052 35.3236 1.91455 36.0572V20.6523C7.65842 18.5397 13.8809 19.772 16.2742 20.6523V37.0914Z" stroke="#FFC745"/>
<path d="M17.2316 37.0913C25.273 33.9223 30.1553 35.3236 31.5912 36.0572V20.6523C25.8474 18.5397 19.6248 19.772 17.2316 20.6523V37.0913Z" stroke="#FFC745"/>
<path d="M5.74377 23.6525C5.74377 23.4443 5.89132 23.2663 6.09662 23.2317C6.81548 23.1106 8.47442 22.853 9.57302 22.853C10.6716 22.853 12.3306 23.1106 13.0494 23.2317C13.2547 23.2663 13.4023 23.4443 13.4023 23.6525C13.4023 23.923 13.1569 24.128 12.8901 24.0834C12.1203 23.9546 10.6417 23.7333 9.57302 23.7333C8.50432 23.7333 7.0257 23.9546 6.25596 24.0834C5.98916 24.128 5.74377 23.923 5.74377 23.6525Z" fill="#FFC745"/>
<path d="M5.74377 26.2933C5.74377 26.0852 5.89132 25.9071 6.09662 25.8725C6.81548 25.7515 8.47442 25.4939 9.57302 25.4939C10.6716 25.4939 12.3306 25.7515 13.0494 25.8725C13.2547 25.9071 13.4023 26.0852 13.4023 26.2933C13.4023 26.5638 13.1569 26.7689 12.8901 26.7242C12.1203 26.5955 10.6417 26.3741 9.57302 26.3741C8.50432 26.3741 7.0257 26.5955 6.25596 26.7242C5.98916 26.7689 5.74377 26.5638 5.74377 26.2933Z" fill="#FFC745"/>
<path d="M5.74377 28.9342C5.74377 28.726 5.89132 28.5479 6.09662 28.5134C6.81548 28.3923 8.47442 28.1347 9.57302 28.1347C10.6716 28.1347 12.3306 28.3923 13.0494 28.5134C13.2547 28.5479 13.4023 28.726 13.4023 28.9342C13.4023 29.2047 13.1569 29.4097 12.8901 29.3651C12.1203 29.2363 10.6417 29.015 9.57302 29.015C8.50432 29.015 7.0257 29.2363 6.25596 29.3651C5.98916 29.4097 5.74377 29.2047 5.74377 28.9342Z" fill="#FFC745"/>
<path d="M5.74377 31.575C5.74377 31.3668 5.89132 31.1888 6.09662 31.1542C6.81548 31.0331 8.47442 30.7755 9.57302 30.7755C10.6716 30.7755 12.3306 31.0331 13.0494 31.1542C13.2547 31.1888 13.4023 31.3668 13.4023 31.575C13.4023 31.8455 13.1569 32.0505 12.8901 32.0059C12.1203 31.8771 10.6417 31.6558 9.57302 31.6558C8.50431 31.6558 7.02569 31.8771 6.25595 32.0059C5.98916 32.0505 5.74377 31.8455 5.74377 31.575Z" fill="#FFC745"/>
<path d="M20.1035 23.6525C20.1035 23.4443 20.2511 23.2663 20.4564 23.2317C21.1752 23.1106 22.8342 22.853 23.9328 22.853C25.0314 22.853 26.6903 23.1106 27.4092 23.2317C27.6145 23.2663 27.762 23.4443 27.762 23.6525C27.762 23.923 27.5166 24.128 27.2498 24.0834C26.4801 23.9546 25.0015 23.7333 23.9328 23.7333C22.8641 23.7333 21.3854 23.9546 20.6157 24.0834C20.3489 24.128 20.1035 23.923 20.1035 23.6525Z" fill="#FFC745"/>
<path d="M20.1035 26.2933C20.1035 26.0852 20.2511 25.9071 20.4564 25.8725C21.1752 25.7515 22.8342 25.4939 23.9328 25.4939C25.0314 25.4939 26.6903 25.7515 27.4092 25.8725C27.6145 25.9071 27.762 26.0852 27.762 26.2933C27.762 26.5638 27.5166 26.7689 27.2498 26.7242C26.4801 26.5955 25.0015 26.3741 23.9328 26.3741C22.8641 26.3741 21.3854 26.5955 20.6157 26.7242C20.3489 26.7689 20.1035 26.5638 20.1035 26.2933Z" fill="#FFC745"/>
<path d="M20.1035 28.9342C20.1035 28.726 20.2511 28.5479 20.4564 28.5134C21.1752 28.3923 22.8342 28.1347 23.9328 28.1347C25.0314 28.1347 26.6903 28.3923 27.4092 28.5134C27.6145 28.5479 27.762 28.726 27.762 28.9342C27.762 29.2047 27.5166 29.4097 27.2498 29.3651C26.4801 29.2363 25.0015 29.015 23.9328 29.015C22.8641 29.015 21.3854 29.2363 20.6157 29.3651C20.3489 29.4097 20.1035 29.2047 20.1035 28.9342Z" fill="#FFC745"/>
<path d="M20.1035 31.575C20.1035 31.3668 20.2511 31.1888 20.4564 31.1542C21.1752 31.0331 22.8342 30.7755 23.9328 30.7755C25.0314 30.7755 26.6903 31.0331 27.4092 31.1542C27.6145 31.1888 27.762 31.3668 27.762 31.575C27.762 31.8455 27.5166 32.0505 27.2498 32.0059C26.4801 31.8771 25.0015 31.6558 23.9328 31.6558C22.8641 31.6558 21.3854 31.8771 20.6157 32.0059C20.3489 32.0505 20.1035 31.8455 20.1035 31.575Z" fill="#FFC745"/>
<path d="M16.6468 1.25421C16.5749 1.18607 16.5034 1.11906 16.4325 1.05323C16.529 1.08916 16.599 1.15857 16.6468 1.25421C20.749 5.14251 26.1865 12.6949 16.9641 13.7251C7.53642 14.7782 15.7857 4.94916 15.7857 4.94916C15.7857 4.94916 17.0665 2.09289 16.6468 1.25421Z" fill="#2430AD"/>
<path d="M16.3749 1C20.4995 4.80289 26.3919 12.672 16.9641 13.7251C7.53642 14.7782 15.7857 4.94916 15.7857 4.94916C15.7857 4.94916 17.3753 1.40426 16.4325 1.05323" stroke="#FFC745" stroke-linecap="round"/>
<path d="M18.7028 29.1689H15.7979L15.3829 16.6783H19.1178L18.7028 29.1689Z" fill="#2430AD" stroke="#FFC745"/>
<path d="M24.0125 11.6821C24.0125 15.0328 20.9474 17.8438 17.0428 17.8438C13.1382 17.8438 10.0731 15.0328 10.0731 11.6821C10.0731 11.2426 10.1259 11.0167 10.1751 10.9149C10.1805 10.9038 10.1851 10.8955 10.1889 10.8896C10.2485 10.8897 10.3827 10.9189 10.6262 11.04C10.8665 11.1595 11.1509 11.3356 11.489 11.5547C11.5896 11.62 11.6943 11.6886 11.8027 11.7597C12.4067 12.1555 13.1276 12.628 13.913 13.0178C14.8433 13.4796 15.9048 13.8475 17.0428 13.8475C18.1808 13.8475 19.2423 13.4796 20.1726 13.0178C20.958 12.628 21.679 12.1555 22.2829 11.7597C22.3913 11.6886 22.496 11.62 22.5966 11.5547C22.9347 11.3356 23.2191 11.1595 23.4594 11.04C23.7029 10.9189 23.8371 10.8897 23.8968 10.8896C23.9005 10.8955 23.9051 10.9038 23.9105 10.9149C23.9597 11.0167 24.0125 11.2426 24.0125 11.6821ZM10.1984 10.8767C10.1984 10.8767 10.1982 10.877 10.1977 10.8774C10.1981 10.8769 10.1984 10.8767 10.1984 10.8767ZM23.8872 10.8767C23.8872 10.8767 23.8875 10.8769 23.888 10.8774C23.8875 10.877 23.8872 10.8767 23.8872 10.8767Z" fill="#FFC745" stroke="#2430AD"/>
<path d="M18.6461 12.0968C18.6461 12.7112 18.0682 13.304 17.2315 13.304C16.3948 13.304 15.8169 12.7112 15.8169 12.0968C15.8169 12.0711 15.8285 11.9911 15.8856 11.8466C15.9395 11.7104 16.0215 11.5475 16.1284 11.3672C16.3422 11.0067 16.6365 10.6087 16.946 10.2627C17.2619 9.90953 17.5636 9.64448 17.7859 9.51761C17.8019 9.5085 17.8164 9.5007 17.8296 9.494C18.2646 10.3053 18.6461 11.329 18.6461 12.0968Z" stroke="#FFC745"/>
<path d="M11.5835 44.4416C11.6282 44.3829 11.692 44.2802 11.775 44.1335C11.9792 43.799 12.1005 43.6318 12.1388 43.6318C12.1835 43.6318 12.2058 43.6553 12.2058 43.7022C12.2058 43.9898 12.0431 44.3536 11.7176 44.7937C11.1304 45.586 10.3486 45.9821 9.37216 45.9821C9.09773 45.9821 8.84564 45.9234 8.61588 45.8061C8.38613 45.6887 8.20424 45.539 8.07021 45.3571C7.79578 44.9874 7.65857 44.6001 7.65857 44.1952C7.65857 43.174 7.94576 42.3524 8.52015 41.7304C9.10092 41.1024 9.78699 40.7885 10.5784 40.7885C10.8783 40.7885 11.124 40.8706 11.3155 41.035C11.507 41.1934 11.6027 41.3959 11.6027 41.6424C11.6027 41.8888 11.5357 42.1177 11.4017 42.329C11.2676 42.5402 11.1049 42.6459 10.9134 42.6459C10.7283 42.6459 10.6358 42.5989 10.6358 42.505C10.6358 42.3994 10.6964 42.2791 10.8177 42.1441C10.9453 42.0091 11.0092 41.8742 11.0092 41.7392C11.0092 41.3225 10.7666 41.1142 10.2816 41.1142C9.80295 41.1142 9.36897 41.4105 8.97966 42.0033C8.59035 42.596 8.3957 43.2063 8.3957 43.8342C8.3957 44.2685 8.52972 44.6558 8.79777 44.9962C9.06582 45.3307 9.44236 45.498 9.9274 45.498C10.5018 45.498 11.0538 45.1459 11.5835 44.4416Z" fill="#FFC745"/>
<path d="M14.6001 43.9839C14.8554 43.9076 15.0309 43.843 15.1266 43.7902C15.2288 43.7315 15.3053 43.6875 15.3564 43.6582L15.4713 43.5966C15.5032 43.579 15.5287 43.5702 15.5479 43.5702C15.5989 43.5702 15.6244 43.5966 15.6244 43.6494C15.6244 43.7022 15.5255 43.7961 15.3277 43.9311C15.1298 44.0602 14.8841 44.1775 14.5906 44.2832C14.5459 44.7761 14.3768 45.1752 14.0832 45.4804C13.7896 45.7855 13.3716 45.9381 12.8291 45.9381C12.4334 45.9381 12.1303 45.7943 11.9197 45.5068C11.709 45.2133 11.6037 44.873 11.6037 44.4856C11.6037 44.0925 11.7282 43.7227 11.9771 43.3765C12.2324 43.0303 12.5579 42.8571 12.9535 42.8571C13.1322 42.7398 13.3429 42.6811 13.5854 42.6811C13.8343 42.6811 14.064 42.8014 14.2746 43.042C14.4852 43.2826 14.5937 43.5966 14.6001 43.9839ZM13.9779 44.4328L13.6332 44.4504C13.3397 44.4504 13.0908 44.3712 12.8865 44.2128C12.6823 44.0484 12.5802 43.8695 12.5802 43.6758C12.5802 43.4821 12.6153 43.3149 12.6855 43.174C12.4111 43.3736 12.2739 43.7668 12.2739 44.3536C12.2739 44.6353 12.3377 44.9052 12.4653 45.1635C12.593 45.4158 12.794 45.542 13.0684 45.542C13.3429 45.542 13.5567 45.4363 13.7098 45.2251C13.863 45.0079 13.9523 44.7439 13.9779 44.4328ZM13.3843 42.9716C13.2822 42.9716 13.2025 43.0156 13.145 43.1036C13.0876 43.1858 13.0589 43.2767 13.0589 43.3765C13.0589 43.5936 13.1386 43.7697 13.2982 43.9047C13.4641 44.0396 13.6556 44.1071 13.8726 44.1071H13.9874C13.9747 43.8196 13.9204 43.5584 13.8247 43.3237C13.7354 43.0889 13.5886 42.9716 13.3843 42.9716Z" fill="#FFC745"/>
<path d="M15.8375 45.4187L15.8471 45.6916C15.8471 45.8559 15.796 45.9381 15.6939 45.9381C15.5408 45.9381 15.394 45.9205 15.2536 45.8853C15.1132 45.8442 15.043 45.7914 15.043 45.7268C15.043 45.6564 15.0589 45.4246 15.0908 45.0314C15.1291 44.6324 15.1483 44.3331 15.1483 44.1335V43.6142C15.1483 43.3325 15.1802 43.1623 15.244 43.1036C15.3078 43.0449 15.4195 42.9598 15.5791 42.8483C15.745 42.7368 15.8631 42.6811 15.9333 42.6811C16.0098 42.6811 16.0577 42.6928 16.0769 42.7163C16.096 42.7398 16.1056 42.7838 16.1056 42.8483C16.1056 43.1594 16.0418 43.4528 15.9141 43.7286C15.8822 44.0631 15.8662 44.2949 15.8662 44.424C15.8918 44.3888 16.0258 44.1893 16.2683 43.8254C16.5108 43.4616 16.7151 43.1946 16.881 43.0244C17.0533 42.8542 17.2065 42.7691 17.3405 42.7691C17.4745 42.7691 17.5926 42.8102 17.6947 42.8923C17.8032 42.9745 17.8575 43.0772 17.8575 43.2004C17.8575 43.4587 17.8255 43.8401 17.7617 44.3448C17.7043 44.8436 17.6756 45.1605 17.6756 45.2955C17.6756 45.4246 17.6947 45.4892 17.733 45.4892C17.8415 45.4833 17.9915 45.3601 18.1829 45.1194C18.3744 44.873 18.5627 44.559 18.7478 44.1775C18.9392 43.7961 19.0541 43.6054 19.0924 43.6054C19.1371 43.6054 19.1594 43.6288 19.1594 43.6758C19.1594 43.8401 19.0669 44.1013 18.8818 44.4592C18.3776 45.4451 17.9532 45.9381 17.6086 45.9381C17.3597 45.9381 17.1714 45.8912 17.0437 45.7973C16.9991 45.7562 16.9767 45.6505 16.9767 45.4804C16.9767 45.3043 16.9927 45.0226 17.0246 44.6353C17.0629 44.2421 17.082 43.9487 17.082 43.755C17.082 43.5614 17.0437 43.4645 16.9672 43.4645C16.897 43.4645 16.7055 43.667 16.3928 44.0719C16.08 44.471 15.9141 44.7263 15.895 44.8378C15.8567 45.0432 15.8375 45.2368 15.8375 45.4187Z" fill="#FFC745"/>
<path d="M20.2612 48.1916C20.2612 47.7632 20.3665 47.2849 20.5771 46.7568L20.692 44.8906C20.5324 45.2427 20.3729 45.5068 20.2133 45.6828C20.0602 45.853 19.8528 45.9381 19.5911 45.9381C19.3358 45.9381 19.1124 45.8295 18.921 45.6124C18.7359 45.3953 18.6433 45.049 18.6433 44.5737C18.6433 44.0983 18.7869 43.6787 19.0741 43.3149C19.3677 42.951 19.7506 42.7691 20.2229 42.7691C20.4271 42.7691 20.6537 42.8894 20.9026 43.13C21.2026 42.8307 21.4227 42.6811 21.5631 42.6811C21.6589 42.6811 21.7067 42.7926 21.7067 43.0156C21.7067 43.0684 21.6844 43.1799 21.6397 43.3501C21.5951 43.5144 21.5504 43.6347 21.5057 43.711C21.4674 43.8284 21.4355 44.1306 21.41 44.6177C21.3844 45.0989 21.3685 45.3835 21.3621 45.4716C21.4451 45.3483 21.6238 45.0549 21.8982 44.5913C22.3067 43.9105 22.5556 43.5702 22.6449 43.5702C22.696 43.5702 22.7215 43.6024 22.7215 43.667C22.7215 43.7315 22.6864 43.802 22.6162 43.8783C22.2716 44.2597 21.844 44.9845 21.3334 46.0525C21.3334 47.0384 21.2472 47.7691 21.0749 48.2444C21.043 48.3266 20.9537 48.4234 20.8069 48.5349C20.6665 48.6523 20.5484 48.711 20.4527 48.711C20.3888 48.711 20.341 48.6552 20.3091 48.5437C20.2772 48.4381 20.2612 48.3207 20.2612 48.1916ZM20.1655 43.086C19.9868 43.086 19.7953 43.2151 19.5911 43.4733C19.3932 43.7257 19.2943 44.0191 19.2943 44.3536C19.2943 44.6822 19.3454 44.9522 19.4475 45.1635C19.556 45.3689 19.6868 45.4716 19.84 45.4716C19.9932 45.4716 20.1368 45.3718 20.2708 45.1723C20.4048 44.9727 20.5675 44.6382 20.759 44.1687L20.8356 43.4117C20.759 43.3295 20.6505 43.2562 20.5101 43.1916C20.3761 43.1212 20.2612 43.086 20.1655 43.086Z" fill="#FFC745"/>
<path d="M22.2613 45.1282L22.3188 44.1423C22.3188 43.5144 22.3507 43.1711 22.4145 43.1124C22.4783 43.0537 22.59 42.9686 22.7495 42.8571C22.9155 42.7398 23.0335 42.6811 23.1037 42.6811C23.1803 42.6811 23.2282 42.6928 23.2473 42.7163C23.2665 42.7398 23.2761 42.7867 23.2761 42.8571C23.2761 43.1095 23.2154 43.3648 23.0942 43.623C22.9984 44.1629 22.9506 44.6059 22.9506 44.9522C22.9506 45.2984 23.0112 45.4716 23.1325 45.4716C23.2793 45.4716 23.4516 45.3542 23.6494 45.1194C23.8473 44.8847 24.0451 44.5355 24.2429 44.0719C24.3004 43.4851 24.3451 43.1682 24.377 43.1212C24.4153 43.0743 24.5046 42.9892 24.645 42.8659C24.7854 42.7427 24.9003 42.6811 24.9897 42.6811C25.0854 42.6811 25.1332 42.7926 25.1332 43.0156C25.1332 43.0743 25.1141 43.1887 25.0758 43.3589C25.0439 43.5291 25.0056 43.6523 24.9609 43.7286C24.8907 43.8929 24.8556 44.4006 24.8556 45.2515C24.8556 45.4099 24.8748 45.4892 24.9131 45.4892C25.0216 45.4833 25.1715 45.3601 25.363 45.1194C25.5545 44.873 25.7427 44.559 25.9278 44.1775C26.1193 43.7961 26.2342 43.6054 26.2724 43.6054C26.3171 43.6054 26.3395 43.6288 26.3395 43.6758C26.3395 43.8401 26.2469 44.1013 26.0618 44.4592C25.5577 45.4451 25.1332 45.9381 24.7886 45.9381C24.5397 45.9381 24.3514 45.8912 24.2238 45.7973C24.1791 45.7562 24.1568 45.63 24.1568 45.4187C24.1568 45.2075 24.1664 44.9727 24.1855 44.7145C23.9813 45.1136 23.7771 45.4187 23.5728 45.63C23.3686 45.8354 23.1388 45.9381 22.8836 45.9381C22.6347 45.9381 22.4687 45.8765 22.3858 45.7532C22.3028 45.63 22.2613 45.4217 22.2613 45.1282Z" fill="#FFC745"/>
<path d="M26.1119 41.5895C26.1119 41.4839 26.1726 41.3929 26.2938 41.3166C26.4151 41.2404 26.5236 41.2022 26.6193 41.2022C26.7916 41.2022 26.8778 41.2932 26.8778 41.4751C26.8778 41.657 26.8267 41.8155 26.7246 41.9504C26.6225 42.0796 26.4789 42.1441 26.2938 42.1441C26.1726 42.1441 26.1119 41.9593 26.1119 41.5895ZM26.3896 45.9381C26.1407 45.9381 25.9524 45.8912 25.8248 45.7973C25.7801 45.7562 25.7577 45.6095 25.7577 45.3571C25.7577 45.1048 25.7769 44.6852 25.8152 44.0983C25.8599 43.5056 25.8981 43.1858 25.9301 43.1388C25.962 43.0919 26.0609 43.0038 26.2268 42.8747C26.3928 42.7456 26.5204 42.6811 26.6098 42.6811C26.7055 42.6811 26.7533 42.7926 26.7533 43.0156C26.7533 43.0743 26.7342 43.1887 26.6959 43.3589C26.664 43.5291 26.6257 43.6523 26.581 43.7286C26.4981 43.9223 26.4566 44.4299 26.4566 45.2515C26.4566 45.4099 26.4757 45.4892 26.514 45.4892C26.6225 45.4833 26.7725 45.3601 26.964 45.1194C27.1554 44.873 27.3437 44.559 27.5288 44.1775C27.7202 43.7961 27.8351 43.6054 27.8734 43.6054C27.9181 43.6054 27.9404 43.6288 27.9404 43.6758C27.9404 43.8401 27.8479 44.1013 27.6628 44.4592C27.1586 45.4451 26.7342 45.9381 26.3896 45.9381Z" fill="#FFC745"/>
<path d="M28.848 43.2004L28.8671 43.0684C28.8671 42.9628 28.8001 42.9099 28.6661 42.9099C28.5385 42.9099 28.414 42.9892 28.2927 43.1476C28.1715 43.3002 28.1109 43.4264 28.1109 43.5261C28.1109 43.6259 28.1172 43.7051 28.13 43.7638C28.1428 43.8225 28.1555 43.8724 28.1683 43.9135C28.1874 43.9487 28.2162 43.9927 28.2545 44.0455C28.2927 44.0983 28.3215 44.1365 28.3406 44.1599L28.4459 44.2832C28.4906 44.3419 28.5225 44.38 28.5417 44.3976C28.8735 44.1453 29.2692 43.8636 29.7287 43.5526C29.7542 43.5349 29.783 43.5261 29.8149 43.5261C29.8787 43.5261 29.9106 43.5584 29.9106 43.623C29.9106 43.6875 29.8819 43.7374 29.8244 43.7726C29.416 44.0132 29.0299 44.2744 28.6661 44.5561C28.8065 44.7439 28.8767 44.9493 28.8767 45.1723C28.8767 45.3953 28.7842 45.586 28.5991 45.7444C28.414 45.9029 28.1779 45.9821 27.8907 45.9821C27.6035 45.9821 27.4599 45.8559 27.4599 45.6036C27.4599 45.4217 27.6705 45.1429 28.0917 44.7673C28.0598 44.7321 28.0024 44.6764 27.9194 44.6001C27.8364 44.5179 27.7726 44.4534 27.7279 44.4064C27.6896 44.3595 27.6418 44.2979 27.5843 44.2216C27.4822 44.0748 27.4312 43.9164 27.4312 43.7462C27.4312 43.4 27.5524 43.1212 27.7949 42.9099C28.0375 42.6928 28.2959 42.5842 28.5704 42.5842C28.7427 42.5842 28.8767 42.6283 28.9724 42.7163C29.0682 42.7984 29.116 42.8835 29.116 42.9716C29.116 43.1711 29.065 43.2709 28.9629 43.2709C28.8863 43.2709 28.848 43.2474 28.848 43.2004ZM28.2353 44.9346C27.98 45.1693 27.8524 45.3601 27.8524 45.5068C27.8524 45.6476 27.9322 45.718 28.0917 45.718C28.1874 45.718 28.2672 45.6828 28.331 45.6124C28.4714 45.4363 28.4395 45.2104 28.2353 44.9346Z" fill="#FFC745"/>
<path d="M31.5668 44.4592C31.0626 45.4451 30.635 45.9381 30.284 45.9381C29.9394 45.9381 29.7352 45.9 29.6714 45.8237C29.6139 45.7474 29.5852 45.495 29.5852 45.0666C29.5852 44.6382 29.6299 44.0191 29.7192 43.2092C29.4001 43.1506 29.231 43.0303 29.2118 42.8483C29.2118 42.7544 29.2789 42.7075 29.4129 42.7075C29.5469 42.7075 29.665 42.731 29.7671 42.7779C29.8245 42.3554 29.8915 41.927 29.9681 41.4927C29.9873 41.3812 30.0479 41.2756 30.15 41.1758C30.2521 41.076 30.351 41.0262 30.4468 41.0262C30.5297 41.0262 30.5712 41.1465 30.5712 41.3871C30.5712 41.4986 30.5266 42.0121 30.4372 42.9276C30.6095 42.8982 30.7978 42.8395 31.002 42.7515C31.2126 42.6635 31.3371 42.6195 31.3754 42.6195C31.4902 42.6195 31.5477 42.6517 31.5477 42.7163C31.5541 42.775 31.436 42.8571 31.1935 42.9628C30.951 43.0625 30.6893 43.1388 30.4085 43.1916C30.3319 44.0484 30.2936 44.6969 30.2936 45.137C30.2936 45.3718 30.3319 45.4892 30.4085 45.4892C30.5234 45.4833 30.6765 45.3601 30.868 45.1194C31.0595 44.8788 31.2477 44.5678 31.4328 44.1864C31.6243 43.799 31.7391 43.6054 31.7774 43.6054C31.8221 43.6054 31.8445 43.6288 31.8445 43.6758C31.8445 43.8401 31.7519 44.1013 31.5668 44.4592Z" fill="#FFC745"/>
<path d="M32.5162 45.9381C32.1588 45.9381 31.8748 45.8149 31.6642 45.5684C31.4536 45.316 31.3483 45.0314 31.3483 44.7145C31.3483 44.0748 31.4951 43.5907 31.7887 43.2621C32.0822 42.9334 32.462 42.7691 32.9279 42.7691C33.1448 42.7691 33.3235 42.8249 33.464 42.9364C33.6044 43.042 33.6746 43.1887 33.6746 43.3765C33.6746 43.7286 33.5118 44.025 33.1863 44.2656C32.8672 44.5003 32.4747 44.6236 32.0088 44.6353C32.0344 44.8642 32.1173 45.0637 32.2577 45.2339C32.4045 45.3982 32.5737 45.4804 32.7651 45.4804C32.9566 45.4804 33.1289 45.4393 33.2821 45.3571C33.4352 45.275 33.5756 45.1576 33.7033 45.005C33.9713 44.6822 34.2011 44.3155 34.3925 43.9047C34.4436 43.799 34.4819 43.7227 34.5074 43.6758C34.5393 43.6288 34.5712 43.6054 34.6032 43.6054C34.6414 43.6054 34.6606 43.6288 34.6606 43.6758C34.6606 43.9692 34.4659 44.4094 34.0766 44.9962C33.6554 45.6241 33.1353 45.9381 32.5162 45.9381ZM32.0088 44.424C32.3854 44.3653 32.6598 44.2538 32.8321 44.0895C33.0108 43.9252 33.1002 43.711 33.1002 43.4469C33.1002 43.1828 33.0076 43.0508 32.8226 43.0508C32.5992 43.0508 32.4109 43.1946 32.2577 43.4821C32.1046 43.7638 32.0216 44.0778 32.0088 44.424Z" fill="#FFC745"/>
<path d="M39.0564 43.9839C39.3117 43.9076 39.4872 43.843 39.583 43.7902C39.6851 43.7315 39.7617 43.6875 39.8127 43.6582L39.9276 43.5966C39.9595 43.579 39.985 43.5702 40.0042 43.5702C40.0552 43.5702 40.0808 43.5966 40.0808 43.6494C40.0808 43.7022 39.9818 43.7961 39.784 43.9311C39.5862 44.0602 39.3405 44.1775 39.0469 44.2832C39.0022 44.7761 38.8331 45.1752 38.5395 45.4804C38.2459 45.7855 37.8279 45.9381 37.2854 45.9381C36.8897 45.9381 36.5866 45.7943 36.376 45.5068C36.1654 45.2133 36.0601 44.873 36.0601 44.4856C36.0601 44.0925 36.1845 43.7227 36.4334 43.3765C36.6887 43.0303 37.0142 42.8571 37.4099 42.8571C37.5886 42.7398 37.7992 42.6811 38.0417 42.6811C38.2906 42.6811 38.5204 42.8014 38.731 43.042C38.9416 43.2826 39.0501 43.5966 39.0564 43.9839ZM38.4342 44.4328L38.0896 44.4504C37.796 44.4504 37.5471 44.3712 37.3429 44.2128C37.1386 44.0484 37.0365 43.8695 37.0365 43.6758C37.0365 43.4821 37.0716 43.3149 37.1418 43.174C36.8674 43.3736 36.7302 43.7668 36.7302 44.3536C36.7302 44.6353 36.794 44.9052 36.9216 45.1635C37.0493 45.4158 37.2503 45.542 37.5247 45.542C37.7992 45.542 38.013 45.4363 38.1661 45.2251C38.3193 45.0079 38.4087 44.7439 38.4342 44.4328ZM37.8407 42.9716C37.7386 42.9716 37.6588 43.0156 37.6013 43.1036C37.5439 43.1858 37.5152 43.2767 37.5152 43.3765C37.5152 43.5936 37.595 43.7697 37.7545 43.9047C37.9204 44.0396 38.1119 44.1071 38.3289 44.1071H38.4438C38.431 43.8196 38.3768 43.5584 38.281 43.3237C38.1917 43.0889 38.0449 42.9716 37.8407 42.9716Z" fill="#FFC745"/>
<path d="M43.1679 43.755L43.2445 43.3061C43.2445 43.2415 43.2221 43.1828 43.1774 43.13C43.1328 43.0772 43.0753 43.0508 43.0051 43.0508C42.769 43.0508 42.5648 43.2151 42.3925 43.5437C42.2201 43.8665 42.134 44.1775 42.134 44.4768C42.134 44.7761 42.201 45.0197 42.335 45.2075C42.469 45.3894 42.6318 45.4804 42.8232 45.4804C43.0211 45.4804 43.1966 45.4393 43.3498 45.3571C43.5029 45.275 43.6433 45.1576 43.771 45.005C44.039 44.6822 44.2688 44.3155 44.4602 43.9047C44.5113 43.799 44.5496 43.7227 44.5751 43.6758C44.607 43.6288 44.6389 43.6054 44.6709 43.6054C44.7091 43.6054 44.7283 43.6288 44.7283 43.6758C44.7283 43.8695 44.6549 44.1013 44.5081 44.3712C44.3613 44.6412 44.2369 44.8495 44.1348 44.9962C44.039 45.137 43.9146 45.2867 43.7614 45.4451C43.4423 45.7738 43.0434 45.9381 42.5648 45.9381C42.201 45.9381 41.9234 45.8207 41.7319 45.586C41.5468 45.3454 41.4543 45.0901 41.4543 44.8201C41.4543 44.1511 41.6107 43.6435 41.9234 43.2973C42.2425 42.9452 42.6445 42.7691 43.1296 42.7691C43.3338 42.7691 43.4934 42.819 43.6082 42.9188C43.7295 43.0126 43.7901 43.1212 43.7901 43.2445C43.7901 43.4733 43.7455 43.6435 43.6561 43.755C43.5668 43.8665 43.4583 43.9223 43.3306 43.9223C43.2221 43.9223 43.1679 43.8665 43.1679 43.755Z" fill="#FFC745"/>
<path d="M47.1899 43.9839C47.4451 43.9076 47.6206 43.843 47.7164 43.7902C47.8185 43.7315 47.8951 43.6875 47.9461 43.6582L48.061 43.5966C48.0929 43.579 48.1185 43.5702 48.1376 43.5702C48.1887 43.5702 48.2142 43.5966 48.2142 43.6494C48.2142 43.7022 48.1153 43.7961 47.9174 43.9311C47.7196 44.0602 47.4739 44.1775 47.1803 44.2832C47.1356 44.7761 46.9665 45.1752 46.6729 45.4804C46.3793 45.7855 45.9613 45.9381 45.4188 45.9381C45.0231 45.9381 44.72 45.7943 44.5094 45.5068C44.2988 45.2133 44.1935 44.873 44.1935 44.4856C44.1935 44.0925 44.3179 43.7227 44.5668 43.3765C44.8221 43.0303 45.1476 42.8571 45.5433 42.8571C45.722 42.7398 45.9326 42.6811 46.1751 42.6811C46.424 42.6811 46.6538 42.8014 46.8644 43.042C47.075 43.2826 47.1835 43.5966 47.1899 43.9839ZM46.5676 44.4328L46.223 44.4504C45.9294 44.4504 45.6805 44.3712 45.4763 44.2128C45.272 44.0484 45.1699 43.8695 45.1699 43.6758C45.1699 43.4821 45.205 43.3149 45.2752 43.174C45.0008 43.3736 44.8636 43.7668 44.8636 44.3536C44.8636 44.6353 44.9274 44.9052 45.0551 45.1635C45.1827 45.4158 45.3837 45.542 45.6582 45.542C45.9326 45.542 46.1464 45.4363 46.2996 45.2251C46.4527 45.0079 46.5421 44.7439 46.5676 44.4328ZM45.9741 42.9716C45.872 42.9716 45.7922 43.0156 45.7347 43.1036C45.6773 43.1858 45.6486 43.2767 45.6486 43.3765C45.6486 43.5936 45.7284 43.7697 45.8879 43.9047C46.0538 44.0396 46.2453 44.1071 46.4623 44.1071H46.5772C46.5644 43.8196 46.5102 43.5584 46.4144 43.3237C46.3251 43.0889 46.1783 42.9716 45.9741 42.9716Z" fill="#FFC745"/>
<path d="M48.4273 45.4187L48.4368 45.6916C48.4368 45.8559 48.3858 45.9381 48.2837 45.9381C48.1305 45.9381 47.9837 45.9205 47.8433 45.8853C47.7029 45.8442 47.6327 45.7914 47.6327 45.7268C47.6327 45.6564 47.6486 45.4246 47.6806 45.0314C47.7188 44.6324 47.738 44.3331 47.738 44.1335V43.6142C47.738 43.3325 47.7699 43.1623 47.8337 43.1036C47.8975 43.0449 48.0092 42.9598 48.1688 42.8483C48.3347 42.7368 48.4528 42.6811 48.523 42.6811C48.5996 42.6811 48.6474 42.6928 48.6666 42.7163C48.6857 42.7398 48.6953 42.7838 48.6953 42.8483C48.6953 43.1594 48.6315 43.4528 48.5038 43.7286C48.4719 44.0631 48.456 44.2949 48.456 44.424C48.4815 44.3888 48.6155 44.1893 48.858 43.8254C49.1006 43.4616 49.3048 43.1946 49.4707 43.0244C49.643 42.8542 49.7962 42.7691 49.9302 42.7691C50.0643 42.7691 50.1823 42.8102 50.2844 42.8923C50.3929 42.9745 50.4472 43.0772 50.4472 43.2004C50.4472 43.4587 50.4153 43.8401 50.3515 44.3448C50.294 44.8436 50.2653 45.1605 50.2653 45.2955C50.2653 45.4246 50.2844 45.4892 50.3227 45.4892C50.4312 45.4833 50.5812 45.3601 50.7727 45.1194C50.9641 44.873 51.1524 44.559 51.3375 44.1775C51.5289 43.7961 51.6438 43.6054 51.6821 43.6054C51.7268 43.6054 51.7491 43.6288 51.7491 43.6758C51.7491 43.8401 51.6566 44.1013 51.4715 44.4592C50.9673 45.4451 50.5429 45.9381 50.1983 45.9381C49.9494 45.9381 49.7611 45.8912 49.6335 45.7973C49.5888 45.7562 49.5665 45.6505 49.5665 45.4804C49.5665 45.3043 49.5824 45.0226 49.6143 44.6353C49.6526 44.2421 49.6718 43.9487 49.6718 43.755C49.6718 43.5614 49.6335 43.4645 49.5569 43.4645C49.4867 43.4645 49.2952 43.667 48.9825 44.0719C48.6698 44.471 48.5038 44.7263 48.4847 44.8378C48.4464 45.0432 48.4273 45.2368 48.4273 45.4187Z" fill="#FFC745"/>
<path d="M52.0276 45.4187L52.0372 45.6916C52.0372 45.8559 51.9862 45.9381 51.8841 45.9381C51.7309 45.9381 51.5841 45.9205 51.4437 45.8853C51.3033 45.8442 51.2331 45.7914 51.2331 45.7268C51.2331 45.6564 51.249 45.4246 51.2809 45.0314C51.3192 44.6324 51.3384 44.3331 51.3384 44.1335V43.623C51.3384 42.1206 51.6288 41.1641 52.2095 40.7533C52.3436 40.6594 52.4808 40.6124 52.6212 40.6124C52.685 40.6124 52.7488 40.677 52.8126 40.8061C52.8765 40.9352 52.9084 41.1024 52.9084 41.3078C52.9084 41.8125 52.8158 42.285 52.6308 42.7251C52.4457 43.1652 52.2574 43.5027 52.0659 43.7374C52.0596 43.8841 52.0564 44.113 52.0564 44.424C52.0819 44.3888 52.2159 44.1893 52.4584 43.8254C52.701 43.4616 52.9052 43.1946 53.0711 43.0244C53.2434 42.8542 53.3966 42.7691 53.5306 42.7691C53.6647 42.7691 53.7827 42.8102 53.8848 42.8923C53.9933 42.9745 54.0476 43.0772 54.0476 43.2004C54.0476 43.4587 54.0157 43.8401 53.9518 44.3448C53.8944 44.8436 53.8657 45.1605 53.8657 45.2955C53.8657 45.4246 53.8848 45.4892 53.9231 45.4892C54.0316 45.4833 54.1816 45.3601 54.3731 45.1194C54.5645 44.873 54.7528 44.559 54.9379 44.1775C55.1293 43.7961 55.2442 43.6054 55.2825 43.6054C55.3272 43.6054 55.3495 43.6288 55.3495 43.6758C55.3495 43.8401 55.257 44.1013 55.0719 44.4592C54.5677 45.4451 54.1433 45.9381 53.7987 45.9381C53.5498 45.9381 53.3615 45.8912 53.2339 45.7973C53.1892 45.7562 53.1668 45.6505 53.1668 45.4804C53.1668 45.3043 53.1828 45.0226 53.2147 44.6353C53.253 44.2421 53.2722 43.9487 53.2722 43.755C53.2722 43.5614 53.2339 43.4645 53.1573 43.4645C53.0871 43.4645 52.8956 43.667 52.5829 44.0719C52.2702 44.471 52.1042 44.7263 52.0851 44.8378C52.0468 45.0432 52.0276 45.2368 52.0276 45.4187ZM52.6499 41.5015C52.6499 41.255 52.6148 41.1318 52.5446 41.1318C52.4297 41.1318 52.318 41.4575 52.2095 42.1089C52.1521 42.4551 52.1106 42.8571 52.0851 43.3149C52.4616 42.593 52.6499 41.9886 52.6499 41.5015Z" fill="#FFC745"/>
<path d="M55.9535 45.9381C55.5961 45.9381 55.3121 45.8149 55.1015 45.5684C54.8909 45.316 54.7856 45.0314 54.7856 44.7145C54.7856 44.0748 54.9324 43.5907 55.226 43.2621C55.5195 42.9334 55.8993 42.7691 56.3652 42.7691C56.5822 42.7691 56.7609 42.8249 56.9013 42.9364C57.0417 43.042 57.1119 43.1887 57.1119 43.3765C57.1119 43.7286 56.9491 44.025 56.6236 44.2656C56.3045 44.5003 55.912 44.6236 55.4461 44.6353C55.4717 44.8642 55.5546 45.0637 55.695 45.2339C55.8418 45.3982 56.011 45.4804 56.2024 45.4804C56.3939 45.4804 56.5662 45.4393 56.7194 45.3571C56.8725 45.275 57.0129 45.1576 57.1406 45.005C57.4086 44.6822 57.6384 44.3155 57.8299 43.9047C57.8809 43.799 57.9192 43.7227 57.9447 43.6758C57.9766 43.6288 58.0086 43.6054 58.0405 43.6054C58.0788 43.6054 58.0979 43.6288 58.0979 43.6758C58.0979 43.9692 57.9032 44.4094 57.5139 44.9962C57.0927 45.6241 56.5726 45.9381 55.9535 45.9381ZM55.4461 44.424C55.8227 44.3653 56.0971 44.2538 56.2694 44.0895C56.4481 43.9252 56.5375 43.711 56.5375 43.4469C56.5375 43.1828 56.4449 43.0508 56.2599 43.0508C56.0365 43.0508 55.8482 43.1946 55.695 43.4821C55.5419 43.7638 55.4589 44.0778 55.4461 44.424Z" fill="#FFC745"/>
<path d="M59.3038 43.755L59.3804 43.3061C59.3804 43.2415 59.3581 43.1828 59.3134 43.13C59.2687 43.0772 59.2113 43.0508 59.1411 43.0508C58.9049 43.0508 58.7007 43.2151 58.5284 43.5437C58.3561 43.8665 58.2699 44.1775 58.2699 44.4768C58.2699 44.7761 58.3369 45.0197 58.471 45.2075C58.605 45.3894 58.7677 45.4804 58.9592 45.4804C59.157 45.4804 59.3325 45.4393 59.4857 45.3571C59.6389 45.275 59.7793 45.1576 59.9069 45.005C60.175 44.6822 60.4047 44.3155 60.5962 43.9047C60.6472 43.799 60.6855 43.7227 60.7111 43.6758C60.743 43.6288 60.7749 43.6054 60.8068 43.6054C60.8451 43.6054 60.8642 43.6288 60.8642 43.6758C60.8642 43.8695 60.7908 44.1013 60.6441 44.3712C60.4973 44.6412 60.3728 44.8495 60.2707 44.9962C60.175 45.137 60.0505 45.2867 59.8973 45.4451C59.5782 45.7738 59.1794 45.9381 58.7007 45.9381C58.3369 45.9381 58.0593 45.8207 57.8678 45.586C57.6828 45.3454 57.5902 45.0901 57.5902 44.8201C57.5902 44.1511 57.7466 43.6435 58.0593 43.2973C58.3784 42.9452 58.7805 42.7691 59.2655 42.7691C59.4697 42.7691 59.6293 42.819 59.7442 42.9188C59.8654 43.0126 59.9261 43.1212 59.9261 43.2445C59.9261 43.4733 59.8814 43.6435 59.792 43.755C59.7027 43.8665 59.5942 43.9223 59.4666 43.9223C59.3581 43.9223 59.3038 43.8665 59.3038 43.755Z" fill="#FFC745"/>
<path d="M60.6836 41.5895C60.6836 41.4839 60.7442 41.3929 60.8655 41.3166C60.9868 41.2404 61.0953 41.2022 61.191 41.2022C61.3633 41.2022 61.4495 41.2932 61.4495 41.4751C61.4495 41.657 61.3984 41.8155 61.2963 41.9504C61.1942 42.0796 61.0506 42.1441 60.8655 42.1441C60.7442 42.1441 60.6836 41.9593 60.6836 41.5895ZM60.9612 45.9381C60.7123 45.9381 60.5241 45.8912 60.3964 45.7973C60.3517 45.7562 60.3294 45.6095 60.3294 45.3571C60.3294 45.1048 60.3486 44.6852 60.3868 44.0983C60.4315 43.5056 60.4698 43.1858 60.5017 43.1388C60.5336 43.0919 60.6326 43.0038 60.7985 42.8747C60.9644 42.7456 61.0921 42.6811 61.1814 42.6811C61.2771 42.6811 61.325 42.7926 61.325 43.0156C61.325 43.0743 61.3059 43.1887 61.2676 43.3589C61.2357 43.5291 61.1974 43.6523 61.1527 43.7286C61.0697 43.9223 61.0282 44.4299 61.0282 45.2515C61.0282 45.4099 61.0474 45.4892 61.0857 45.4892C61.1942 45.4833 61.3442 45.3601 61.5356 45.1194C61.7271 44.873 61.9154 44.559 62.1004 44.1775C62.2919 43.7961 62.4068 43.6054 62.4451 43.6054C62.4897 43.6054 62.5121 43.6288 62.5121 43.6758C62.5121 43.8401 62.4195 44.1013 62.2345 44.4592C61.7303 45.4451 61.3059 45.9381 60.9612 45.9381Z" fill="#FFC745"/>
<path d="M62.7974 45.4187L62.807 45.6916C62.807 45.8559 62.7559 45.9381 62.6538 45.9381C62.5006 45.9381 62.3539 45.9205 62.2134 45.8853C62.073 45.8442 62.0028 45.7914 62.0028 45.7268C62.0028 45.6564 62.0188 45.4246 62.0507 45.0314C62.089 44.6324 62.1081 44.3331 62.1081 44.1335V43.6142C62.1081 43.3325 62.14 43.1623 62.2039 43.1036C62.2677 43.0449 62.3794 42.9598 62.5389 42.8483C62.7049 42.7368 62.8229 42.6811 62.8931 42.6811C62.9697 42.6811 63.0176 42.6928 63.0367 42.7163C63.0559 42.7398 63.0655 42.7838 63.0655 42.8483C63.0655 43.1594 63.0016 43.4528 62.874 43.7286C62.8421 44.0631 62.8261 44.2949 62.8261 44.424C63.1644 43.843 63.4005 43.4616 63.5345 43.2797C63.7707 42.9393 63.9845 42.7691 64.1759 42.7691C64.2972 42.7691 64.4089 42.8131 64.511 42.9011C64.6195 42.9892 64.6737 43.0977 64.6737 43.2268C64.6737 43.356 64.6705 43.4792 64.6642 43.5966C64.6642 43.7081 64.661 43.7961 64.6546 43.8606C64.6482 43.9252 64.645 43.9663 64.645 43.9839C64.6705 43.9369 64.779 43.8049 64.9705 43.5878C65.162 43.3706 65.2896 43.2298 65.3534 43.1652C65.4236 43.1007 65.497 43.0361 65.5736 42.9716C65.7204 42.8366 65.8512 42.7691 65.9661 42.7691C66.0874 42.7691 66.1991 42.8102 66.3012 42.8923C66.4097 42.9745 66.4639 43.0772 66.4639 43.2004C66.4639 43.4587 66.432 43.8401 66.3682 44.3448C66.3107 44.8436 66.282 45.1605 66.282 45.2955C66.282 45.4246 66.3012 45.4892 66.3395 45.4892C66.448 45.4833 66.5979 45.3601 66.7894 45.1194C66.9809 44.873 67.1691 44.559 67.3542 44.1775C67.5457 43.7961 67.6605 43.6054 67.6988 43.6054C67.7435 43.6054 67.7659 43.6288 67.7659 43.6758C67.7659 43.8401 67.6733 44.1013 67.4882 44.4592C66.984 45.4451 66.5596 45.9381 66.215 45.9381C65.998 45.9381 65.8257 45.8912 65.6981 45.7973C65.6534 45.7562 65.631 45.6505 65.631 45.4804C65.631 45.3043 65.647 45.0226 65.6789 44.6353C65.7172 44.2421 65.7364 43.9487 65.7364 43.755C65.7364 43.5614 65.7013 43.4645 65.631 43.4645C65.5481 43.4645 65.3662 43.5936 65.0854 43.8518C64.811 44.1101 64.6642 44.292 64.645 44.3976C64.6067 44.5971 64.5876 45.0285 64.5876 45.6916C64.5876 45.8559 64.5397 45.9381 64.444 45.9381C64.2972 45.9381 64.1568 45.9205 64.0228 45.8853C63.8951 45.8442 63.8313 45.7914 63.8313 45.7268C63.8313 45.6564 63.8504 45.3659 63.8887 44.8554C63.927 44.3448 63.9462 43.9868 63.9462 43.7814C63.9462 43.5702 63.9079 43.4645 63.8313 43.4645C63.7611 43.4645 63.5856 43.667 63.3048 44.0719C63.024 44.471 62.8676 44.7497 62.8357 44.9082C62.8102 45.0666 62.7974 45.2368 62.7974 45.4187Z" fill="#FFC745"/>
<path d="M68.3593 45.9381C68.0019 45.9381 67.7179 45.8149 67.5073 45.5684C67.2967 45.316 67.1914 45.0314 67.1914 44.7145C67.1914 44.0748 67.3382 43.5907 67.6318 43.2621C67.9253 42.9334 68.3051 42.7691 68.771 42.7691C68.9879 42.7691 69.1666 42.8249 69.307 42.9364C69.4475 43.042 69.5177 43.1887 69.5177 43.3765C69.5177 43.7286 69.3549 44.025 69.0294 44.2656C68.7103 44.5003 68.3178 44.6236 67.8519 44.6353C67.8775 44.8642 67.9604 45.0637 68.1008 45.2339C68.2476 45.3982 68.4167 45.4804 68.6082 45.4804C68.7997 45.4804 68.972 45.4393 69.1252 45.3571C69.2783 45.275 69.4187 45.1576 69.5464 45.005C69.8144 44.6822 70.0442 44.3155 70.2356 43.9047C70.2867 43.799 70.325 43.7227 70.3505 43.6758C70.3824 43.6288 70.4143 43.6054 70.4463 43.6054C70.4845 43.6054 70.5037 43.6288 70.5037 43.6758C70.5037 43.9692 70.309 44.4094 69.9197 44.9962C69.4985 45.6241 68.9784 45.9381 68.3593 45.9381ZM67.8519 44.424C68.2285 44.3653 68.5029 44.2538 68.6752 44.0895C68.8539 43.9252 68.9433 43.711 68.9433 43.4469C68.9433 43.1828 68.8507 43.0508 68.6656 43.0508C68.4423 43.0508 68.254 43.1946 68.1008 43.4821C67.9477 43.7638 67.8647 44.0778 67.8519 44.424Z" fill="#FFC745"/>
<path d="M70.7427 45.4187L70.7523 45.6916C70.7523 45.8559 70.7012 45.9381 70.5991 45.9381C70.4459 45.9381 70.2992 45.9205 70.1588 45.8853C70.0183 45.8442 69.9481 45.7914 69.9481 45.7268C69.9481 45.6564 69.9641 45.4246 69.996 45.0314C70.0343 44.6324 70.0535 44.3331 70.0535 44.1335V43.6142C70.0535 43.3325 70.0854 43.1623 70.1492 43.1036C70.213 43.0449 70.3247 42.9598 70.4842 42.8483C70.6502 42.7368 70.7682 42.6811 70.8384 42.6811C70.915 42.6811 70.9629 42.6928 70.982 42.7163C71.0012 42.7398 71.0108 42.7838 71.0108 42.8483C71.0108 43.1594 70.9469 43.4528 70.8193 43.7286C70.7874 44.0631 70.7714 44.2949 70.7714 44.424C70.797 44.3888 70.931 44.1893 71.1735 43.8254C71.416 43.4616 71.6203 43.1946 71.7862 43.0244C71.9585 42.8542 72.1117 42.7691 72.2457 42.7691C72.3797 42.7691 72.4978 42.8102 72.5999 42.8923C72.7084 42.9745 72.7626 43.0772 72.7626 43.2004C72.7626 43.4587 72.7307 43.8401 72.6669 44.3448C72.6095 44.8436 72.5807 45.1605 72.5807 45.2955C72.5807 45.4246 72.5999 45.4892 72.6382 45.4892C72.7467 45.4833 72.8967 45.3601 73.0881 45.1194C73.2796 44.873 73.4679 44.559 73.6529 44.1775C73.8444 43.7961 73.9593 43.6054 73.9976 43.6054C74.0423 43.6054 74.0646 43.6288 74.0646 43.6758C74.0646 43.8401 73.972 44.1013 73.787 44.4592C73.2828 45.4451 72.8584 45.9381 72.5137 45.9381C72.2648 45.9381 72.0766 45.8912 71.9489 45.7973C71.9043 45.7562 71.8819 45.6505 71.8819 45.4804C71.8819 45.3043 71.8979 45.0226 71.9298 44.6353C71.9681 44.2421 71.9872 43.9487 71.9872 43.755C71.9872 43.5614 71.9489 43.4645 71.8723 43.4645C71.8021 43.4645 71.6107 43.667 71.298 44.0719C70.9852 44.471 70.8193 44.7263 70.8002 44.8378C70.7619 45.0432 70.7427 45.2368 70.7427 45.4187Z" fill="#FFC745"/>
<path d="M75.6929 44.4592C75.1887 45.4451 74.7611 45.9381 74.4101 45.9381C74.0655 45.9381 73.8613 45.9 73.7974 45.8237C73.74 45.7474 73.7113 45.495 73.7113 45.0666C73.7113 44.6382 73.756 44.0191 73.8453 43.2092C73.5262 43.1506 73.3571 43.0303 73.3379 42.8483C73.3379 42.7544 73.4049 42.7075 73.539 42.7075C73.673 42.7075 73.7911 42.731 73.8932 42.7779C73.9506 42.3554 74.0176 41.927 74.0942 41.4927C74.1133 41.3812 74.174 41.2756 74.2761 41.1758C74.3782 41.076 74.4771 41.0262 74.5729 41.0262C74.6558 41.0262 74.6973 41.1465 74.6973 41.3871C74.6973 41.4986 74.6526 42.0121 74.5633 42.9276C74.7356 42.8982 74.9239 42.8395 75.1281 42.7515C75.3387 42.6635 75.4632 42.6195 75.5015 42.6195C75.6163 42.6195 75.6738 42.6517 75.6738 42.7163C75.6802 42.775 75.5621 42.8571 75.3196 42.9628C75.077 43.0625 74.8154 43.1388 74.5346 43.1916C74.458 44.0484 74.4197 44.6969 74.4197 45.137C74.4197 45.3718 74.458 45.4892 74.5346 45.4892C74.6494 45.4833 74.8026 45.3601 74.9941 45.1194C75.1855 44.8788 75.3738 44.5678 75.5589 44.1864C75.7504 43.799 75.8652 43.6054 75.9035 43.6054C75.9482 43.6054 75.9705 43.6288 75.9705 43.6758C75.9705 43.8401 75.878 44.1013 75.6929 44.4592Z" fill="#FFC745"/>
<path d="M78.4708 43.9839C78.726 43.9076 78.9016 43.843 78.9973 43.7902C79.0994 43.7315 79.176 43.6875 79.227 43.6582L79.3419 43.5966C79.3738 43.579 79.3994 43.5702 79.4185 43.5702C79.4696 43.5702 79.4951 43.5966 79.4951 43.6494C79.4951 43.7022 79.3962 43.7961 79.1983 43.9311C79.0005 44.0602 78.7548 44.1775 78.4612 44.2832C78.4165 44.7761 78.2474 45.1752 77.9538 45.4804C77.6602 45.7855 77.2422 45.9381 76.6997 45.9381C76.304 45.9381 76.0009 45.7943 75.7903 45.5068C75.5797 45.2133 75.4744 44.873 75.4744 44.4856C75.4744 44.0925 75.5988 43.7227 75.8477 43.3765C76.103 43.0303 76.4285 42.8571 76.8242 42.8571C77.0029 42.7398 77.2135 42.6811 77.456 42.6811C77.7049 42.6811 77.9347 42.8014 78.1453 43.042C78.3559 43.2826 78.4644 43.5966 78.4708 43.9839ZM77.8485 44.4328L77.5039 44.4504C77.2103 44.4504 76.9614 44.3712 76.7572 44.2128C76.5529 44.0484 76.4508 43.8695 76.4508 43.6758C76.4508 43.4821 76.4859 43.3149 76.5561 43.174C76.2817 43.3736 76.1445 43.7668 76.1445 44.3536C76.1445 44.6353 76.2083 44.9052 76.336 45.1635C76.4636 45.4158 76.6646 45.542 76.9391 45.542C77.2135 45.542 77.4273 45.4363 77.5805 45.2251C77.7336 45.0079 77.823 44.7439 77.8485 44.4328ZM77.255 42.9716C77.1529 42.9716 77.0731 43.0156 77.0157 43.1036C76.9582 43.1858 76.9295 43.2767 76.9295 43.3765C76.9295 43.5936 77.0093 43.7697 77.1688 43.9047C77.3348 44.0396 77.5262 44.1071 77.7432 44.1071H77.8581C77.8453 43.8196 77.7911 43.5584 77.6953 43.3237C77.606 43.0889 77.4592 42.9716 77.255 42.9716Z" fill="#FFC745"/>
</svg>
