<svg width="20" height="20" viewBox="0 0 20 20" fill="none" xmlns="http://www.w3.org/2000/svg">
<path d="M6.06487 0.104156C4.41119 0.104156 3.05561 1.62919 3.05561 3.48957V15.2083H1.43524C0.803946 15.2083 0.277832 15.8002 0.277832 16.5104V17.5521C0.277832 18.8372 1.2188 19.8958 2.36117 19.8958H14.8612C16.0035 19.8958 16.9445 18.8372 16.9445 17.5521V4.79166H18.5649C19.1962 4.79166 19.7223 4.19978 19.7223 3.48957V2.44791C19.7223 1.20481 18.8398 0.182528 17.7484 0.116364C17.7122 0.109048 17.6756 0.104966 17.6389 0.104156H6.06487ZM6.06487 1.66666H15.6976C15.6179 1.91378 15.5556 2.17156 15.5556 2.44791V3.88223C15.5434 3.9661 15.5434 4.05166 15.5556 4.13553V17.5521C15.5556 17.993 15.2531 18.3333 14.8612 18.3333C14.4693 18.3333 14.1667 17.993 14.1667 17.5521V16.5104C14.1667 15.8002 13.6406 15.2083 13.0093 15.2083H4.4445V3.48957C4.4445 2.47392 5.16206 1.66666 6.06487 1.66666ZM17.6389 1.66666C18.0308 1.66666 18.3334 2.00702 18.3334 2.44791V3.22916H16.9445V2.44791C16.9445 2.00702 17.247 1.66666 17.6389 1.66666ZM6.99079 4.27082C6.89877 4.26936 6.80741 4.28848 6.72201 4.32709C6.63662 4.36569 6.5589 4.42301 6.49336 4.4957C6.42783 4.56839 6.37579 4.65501 6.34027 4.75052C6.30475 4.84603 6.28646 4.94854 6.28646 5.05207C6.28646 5.15561 6.30475 5.25811 6.34027 5.35362C6.37579 5.44914 6.42783 5.53576 6.49336 5.60845C6.5589 5.68114 6.63662 5.73845 6.72201 5.77706C6.80741 5.81566 6.89877 5.83479 6.99079 5.83332H13.0093C13.1013 5.83479 13.1927 5.81566 13.2781 5.77706C13.3635 5.73845 13.4412 5.68114 13.5067 5.60845C13.5723 5.53576 13.6243 5.44914 13.6598 5.35362C13.6954 5.25811 13.7136 5.15561 13.7136 5.05207C13.7136 4.94854 13.6954 4.84603 13.6598 4.75052C13.6243 4.65501 13.5723 4.56839 13.5067 4.4957C13.4412 4.42301 13.3635 4.36569 13.2781 4.32709C13.1927 4.28848 13.1013 4.26936 13.0093 4.27082H6.99079ZM6.99079 7.91666C6.89877 7.91519 6.80741 7.93432 6.72201 7.97292C6.63662 8.01153 6.5589 8.06884 6.49336 8.14153C6.42783 8.21422 6.37579 8.30084 6.34027 8.39635C6.30475 8.49187 6.28646 8.59437 6.28646 8.69791C6.28646 8.80144 6.30475 8.90394 6.34027 8.99946C6.37579 9.09497 6.42783 9.18159 6.49336 9.25428C6.5589 9.32697 6.63662 9.38428 6.72201 9.42289C6.80741 9.46149 6.89877 9.48062 6.99079 9.47915H13.0093C13.1013 9.48062 13.1927 9.46149 13.2781 9.42289C13.3635 9.38428 13.4412 9.32697 13.5067 9.25428C13.5723 9.18159 13.6243 9.09497 13.6598 8.99946C13.6954 8.90394 13.7136 8.80144 13.7136 8.69791C13.7136 8.59437 13.6954 8.49187 13.6598 8.39635C13.6243 8.30084 13.5723 8.21422 13.5067 8.14153C13.4412 8.06884 13.3635 8.01153 13.2781 7.97292C13.1927 7.93432 13.1013 7.91519 13.0093 7.91666H6.99079ZM6.99079 11.5625C6.89877 11.561 6.80741 11.5802 6.72201 11.6188C6.63662 11.6574 6.5589 11.7147 6.49336 11.7874C6.42783 11.8601 6.37579 11.9467 6.34027 12.0422C6.30475 12.1377 6.28646 12.2402 6.28646 12.3437C6.28646 12.4473 6.30475 12.5498 6.34027 12.6453C6.37579 12.7408 6.42783 12.8274 6.49336 12.9001C6.5589 12.9728 6.63662 13.0301 6.72201 13.0687C6.80741 13.1073 6.89877 13.1265 6.99079 13.125H12.0834C12.1754 13.1265 12.2668 13.1073 12.3522 13.0687C12.4376 13.0301 12.5153 12.9728 12.5808 12.9001C12.6464 12.8274 12.6984 12.7408 12.7339 12.6453C12.7694 12.5498 12.7877 12.4473 12.7877 12.3437C12.7877 12.2402 12.7694 12.1377 12.7339 12.0422C12.6984 11.9467 12.6464 11.8601 12.5808 11.7874C12.5153 11.7147 12.4376 11.6574 12.3522 11.6188C12.2668 11.5802 12.1754 11.561 12.0834 11.5625H6.99079ZM1.66672 16.7708H3.63612C3.71067 16.7846 3.78672 16.7846 3.86127 16.7708H12.7778V17.5521C12.7778 17.8284 12.8401 18.0862 12.9198 18.3333H2.36117C1.96927 18.3333 1.66672 17.993 1.66672 17.5521V16.7708Z" fill="#2430AD"/>
</svg>
